<svg width="54" height="54" viewBox="0 0 54 54" fill="none" xmlns="http://www.w3.org/2000/svg">
<circle cx="27" cy="27" r="24" stroke="#8D79C4" stroke-width="6"/>
<path d="M28.455 22.4551C28.6649 22.247 28.9483 22.1299 29.2439 22.129C29.5395 22.1282 29.8235 22.2438 30.0346 22.4507C30.2456 22.6576 30.3668 22.9393 30.3718 23.2349C30.3769 23.5304 30.2654 23.8161 30.0615 24.0301L24.0735 31.5151C23.9706 31.6259 23.8464 31.7149 23.7083 31.7766C23.5702 31.8384 23.4211 31.8716 23.2699 31.8744C23.1186 31.8772 22.9684 31.8495 22.8281 31.7929C22.6879 31.7363 22.5604 31.652 22.4535 31.5451L18.486 27.5761C18.3755 27.4731 18.2868 27.3489 18.2253 27.2109C18.1638 27.0729 18.1308 26.9239 18.1281 26.7728C18.1254 26.6218 18.1532 26.4718 18.2098 26.3317C18.2664 26.1916 18.3506 26.0643 18.4574 25.9575C18.5643 25.8507 18.6915 25.7665 18.8316 25.7099C18.9717 25.6533 19.1217 25.6255 19.2728 25.6282C19.4238 25.6308 19.5728 25.6639 19.7108 25.7254C19.8488 25.7869 19.973 25.8755 20.076 25.9861L23.217 29.1256L28.425 22.4881C28.4343 22.4765 28.4444 22.4655 28.455 22.4551ZM27.075 30.1651L28.455 31.5451C28.5619 31.6518 28.6892 31.7359 28.8294 31.7923C28.9695 31.8488 29.1196 31.8765 29.2706 31.8737C29.4217 31.8709 29.5706 31.8377 29.7085 31.7761C29.8465 31.7144 29.9706 31.6257 30.0735 31.5151L36.0615 24.0301C36.1691 23.9239 36.2541 23.7971 36.3116 23.6573C36.3691 23.5175 36.3978 23.3675 36.396 23.2164C36.3943 23.0652 36.3621 22.916 36.3013 22.7776C36.2406 22.6391 36.1526 22.5144 36.0426 22.4107C35.9326 22.307 35.8028 22.2266 35.661 22.1742C35.5192 22.1218 35.3684 22.0986 35.2174 22.1058C35.0664 22.113 34.9184 22.1506 34.7823 22.2163C34.6461 22.2819 34.5246 22.3744 34.425 22.4881L29.2155 29.1256L28.488 28.3966L27.0735 30.1651H27.075Z" fill="#FF6C00"/>
</svg>
