<svg width="1200" height="630" viewBox="0 0 1200 630" fill="none" xmlns="http://www.w3.org/2000/svg">
<g clip-path="url(#clip0)">
<rect width="1200" height="630" fill="#04102F"/>
<rect width="1240" height="704" fill="#04102F"/>
<g clip-path="url(#clip1)">
<path d="M518.563 139.358L525.365 136.844L532.148 153.622L507.538 163.572L470.217 70.3783L494.706 60.7458L501.489 77.5235L494.687 80.0375L518.563 139.358Z" fill="white"/>
<path d="M566.965 112.956L576.52 111.852L578.823 129.841L540.8 134.696L538.497 116.707L548.053 115.603L542.507 73.4421L532.952 74.5461L530.65 56.5571L568.672 51.7015L570.975 69.6905L561.42 70.7945L566.965 112.956Z" fill="white"/>
<path d="M642.65 77.2538L630.317 136.657L611.665 132.848L624.118 73.1274L604.068 69.1522L607.798 51.6344L666.112 63.5899L662.381 81.1077L642.65 77.2538Z" fill="white"/>
<path d="M694.511 134.096L669.731 121.405L674.756 112.026L699.536 124.716L694.511 134.096Z" fill="white"/>
<path d="M742.123 143.442L765.236 165.331L752.925 178.497L729.813 156.609L709.042 178.578L694.974 165.587L749.144 108.604L788.396 145.726L776.086 158.893L750.781 135.079L742.123 143.442Z" fill="white"/>
<path d="M793.472 210.286L807.452 238.901L791.241 246.944L777.261 218.329L766.134 223.57L781.305 254.822L765.094 262.865L741.423 214.547L812.31 179.936L835.98 228.254L819.769 236.297L804.599 205.045L793.472 210.286Z" fill="white"/>
<path d="M849.921 295.452L849.999 296.21C850.766 306.697 847.415 317.441 839.508 328.638L827.114 317.012C828.642 313.951 829.972 310.45 830.663 306.707C831.673 303.086 832.122 299.979 831.889 297.706L831.812 296.948C831.355 289.492 828.688 285.93 824.571 286.187C823.492 286.141 822.931 286.656 822.249 287.489C821.567 288.323 821.204 289.277 820.721 290.55C820.557 291.944 820.194 292.899 820.151 293.975C820.108 295.051 820.064 296.127 819.779 297.839L819.684 302.901C819.511 307.205 819.139 311.069 818.25 314.373C817.36 317.676 816.151 320.858 814.623 323.919C813.095 326.98 810.73 329.359 807.648 330.737C804.765 332.555 801.165 333.372 796.927 333.947C789.331 334.703 783.065 331.959 778.085 326.79C773.105 321.621 770.172 313.952 769.361 304.541L769.163 304.101C768.585 296.963 769.406 289.993 771.703 283.946C774 277.9 777.453 272.658 781.182 268.612L793.576 280.239C788.241 286.587 786.099 294.149 786.832 302.802L787.03 303.242C787.884 311.577 790.43 315.457 794.987 315.004C796.507 314.852 797.387 314.459 798.388 313.747C799.39 313.035 799.873 311.762 800.357 310.489C800.961 308.898 801.004 307.822 801.169 306.428C801.212 305.352 801.497 303.639 801.463 301.805L801.558 296.744C801.783 288.454 803.562 281.847 806.696 276.484C809.83 271.12 815.035 267.999 821.751 267.637C829.226 267.199 835.414 269.186 840.273 274.673C846.134 279.448 849.188 286.799 849.921 295.452Z" fill="white"/>
<path d="M819.552 397.526L761.015 380.388L766.507 362.082L825.044 379.221L830.579 359.839L847.989 364.996L831.107 421.943L813.698 416.786L819.552 397.526Z" fill="white"/>
<path d="M806.349 440.941L821.746 450.431L807.769 472.796L722.564 420.038L736.541 397.673L751.939 407.164L748.123 413.361L802.533 447.138L806.349 440.941Z" fill="white"/>
<path d="M654.515 494.325L647.911 497.279L640.688 480.698L664.78 470.186L704.863 561.881L680.771 572.392L673.549 555.811L680.152 552.858L654.515 494.325Z" fill="#FF6C00"/>
<path d="M606.589 522.365L597.232 523.908L594.49 506.116L632.236 500.063L634.979 517.855L625.622 519.399L632.367 561.288L641.724 559.744L644.467 577.536L606.72 583.589L603.977 565.797L613.334 564.253L606.589 522.365Z" fill="#FF6C00"/>
<path d="M532.411 560.824L542.707 501.012L561.601 504.183L551.305 563.996L571.157 567.532L568.065 585.292L509.467 575.049L512.559 557.289L532.411 560.824Z" fill="#FF6C00"/>
<path d="M478.869 505.528L504.21 517.704L499.504 527.204L474.163 515.029L478.869 505.528Z" fill="#FF6C00"/>
<path d="M430.653 497.773L406.858 476.717L418.969 463.111L442.764 484.167L463.017 461.637L477.205 474.309L425.029 532.778L384.534 497.004L396.525 483.716L422.512 506.697L430.653 497.773Z" fill="#FF6C00"/>
<path d="M377.179 432.671L362.197 404.768L378.21 396.285L393.191 424.188L404.119 418.508L387.628 387.846L403.641 379.364L429.072 426.894L359.497 463.825L334.066 416.294L350.078 407.811L366.57 438.473L377.179 432.671Z" fill="#FF6C00"/>
<path d="M317.846 349.322L317.769 348.565C316.682 337.956 319.713 327.091 327.181 316.091L340.136 327.202C338.608 330.263 337.597 333.885 336.906 337.628C336.215 341.371 335.766 344.477 335.999 346.75L336.076 347.508C336.973 354.767 339.64 358.329 343.559 357.633C344.638 357.679 345.199 357.164 345.881 356.33C346.563 355.497 346.926 354.542 347.09 353.148C347.254 351.754 347.297 350.678 347.34 349.602C347.384 348.526 347.427 347.45 347.393 345.616L347.169 340.434C347.023 336.008 347.394 332.144 348.284 328.841C348.854 325.416 350.063 322.234 351.591 319.173C353.119 316.112 355.484 313.733 358.367 311.915C361.251 310.098 364.971 308.962 368.89 308.266C376.486 307.51 382.674 309.496 387.973 314.787C392.953 319.955 396.327 327.427 397.578 336.642L397.776 337.081C398.673 344.34 397.973 350.993 395.676 357.039C393.38 363.085 390.246 368.449 386.517 372.495L373.562 361.383C378.578 354.914 380.719 347.352 379.667 338.577L379.469 338.138C378.175 329.999 375.629 326.119 371.071 326.573C369.552 326.724 368.672 327.118 367.99 327.951C367.308 328.784 366.505 329.936 366.341 331.33C366.056 333.043 365.693 333.997 365.529 335.391C365.486 336.467 365.201 338.18 365.554 340.135L365.778 345.318C365.993 353.41 364.412 360.457 361.279 365.821C358.464 371.306 353.259 374.427 346.423 375.107C338.827 375.863 332.638 373.876 327.658 368.707C322.074 365.13 319.218 358.218 317.846 349.322Z" fill="#FF6C00"/>
<path d="M345.22 246.475L404.042 261.901L399.189 280.449L340.367 265.023L335.151 284.526L317.819 280.127L332.784 222.452L350.116 226.851L345.22 246.475Z" fill="#FF6C00"/>
<path d="M356.508 202.333L340.989 193.161L354.129 170.114L441.061 220.25L427.921 243.297L412.281 234.443L415.778 228.125L360.324 196.136L356.508 202.333Z" fill="#FF6C00"/>
<path d="M545.627 284.366C540.249 284.366 536.195 288.836 536.195 294.772C536.195 300.708 540.292 305.178 545.723 305.178C551.099 305.178 555.154 300.708 555.154 294.772C555.154 288.836 551.058 284.366 545.627 284.366ZM572.876 253.424L456 253.424L456 336.567L572.876 336.567L600.476 295.085L572.876 253.424ZM517.113 307.935L516.842 308.177C512.479 312.057 507.427 314.024 501.829 314.024C496.535 314.024 491.76 312.084 488.383 308.561C485.037 305.067 483.192 300.17 483.192 294.772C483.192 289.587 485.066 284.759 488.473 281.183C491.93 277.534 496.651 275.524 501.788 275.524C507.581 275.524 511.586 276.997 515.637 280.607L516.215 281.122L510.519 288.313L509.928 287.797C507.444 285.624 505.274 284.366 501.534 284.366C496.574 284.366 492.54 289.034 492.54 294.772C492.54 300.862 496.547 305.28 502.067 305.28C504.497 305.28 506.657 304.674 508.342 303.521L508.342 299.653L500.818 299.653L500.818 291.264L517.113 291.264L517.113 307.935ZM559.154 308.37C555.648 312.016 550.843 314.024 545.627 314.024C540.41 314.024 535.615 312.03 532.145 308.407C528.727 304.84 526.844 300.004 526.844 294.772C526.829 292.246 527.294 289.742 528.213 287.407C529.132 285.072 530.485 282.953 532.194 281.174C535.701 277.528 540.505 275.529 545.723 275.529C550.942 275.529 555.733 277.525 559.203 281.145C562.621 284.712 564.504 289.549 564.504 294.781C564.518 297.306 564.053 299.808 563.134 302.141C562.215 304.475 560.862 306.592 559.154 308.37Z" fill="white"/>
<path d="M720 253L603.269 253L603.269 336.144L720 336.144L720 253Z" fill="#FF6C00"/>
<path d="M639.234 277.92L646.581 277.92L646.581 312.965L639.234 312.965L639.234 277.92Z" fill="white" stroke="white" stroke-miterlimit="10"/>
<path d="M668.311 285.029L658.15 285.029L658.15 277.92L685.818 277.92L685.818 285.029L675.657 285.029L675.657 312.965L668.311 312.965L668.311 285.029Z" fill="white" stroke="white" stroke-miterlimit="10"/>
<path d="M559.24 379.408C558.913 378.201 558.277 377.109 557.399 376.247C556.495 375.359 555.388 374.723 554.182 374.4C549.668 373.169 531.581 373.169 531.581 373.169C524.04 373.08 516.502 373.47 509.008 374.338C507.802 374.685 506.697 375.334 505.791 376.23C504.902 377.116 504.258 378.208 503.921 379.405C503.113 383.914 502.72 388.492 502.748 393.078C502.719 397.66 503.111 402.236 503.921 406.751C504.251 407.943 504.892 409.031 505.784 409.909C506.676 410.788 507.787 411.422 509.008 411.758C513.583 412.988 531.581 412.988 531.581 412.988C539.13 413.077 546.679 412.686 554.182 411.818C555.388 411.495 556.495 410.86 557.399 409.971C558.288 409.093 558.92 408 559.238 406.811C560.067 402.304 560.471 397.723 560.442 393.135C560.504 388.528 560.102 383.929 559.24 379.408ZM525.83 401.599L525.83 384.559L540.879 393.081L533.355 397.34L525.83 401.599Z" fill="#FF6C00"/>
<path d="M678.813 383.039C680.812 383.039 682.321 383.4 683.378 384.085C684.434 384.77 685.189 385.852 685.641 387.331C686.094 388.81 686.282 390.83 686.282 393.427L686.282 397.647L676.587 397.647L676.587 398.945L676.738 402.516C676.851 403.31 677.04 403.887 677.342 404.247C677.644 404.608 678.134 404.789 678.775 404.789C679.643 404.789 680.247 404.464 680.548 403.815C680.888 403.166 681.039 402.083 681.076 400.605L686.094 400.893C686.132 401.11 686.132 401.398 686.132 401.759C686.132 404.031 685.49 405.727 684.17 406.845C682.849 407.962 681.039 408.54 678.662 408.54C675.795 408.54 673.796 407.674 672.664 405.979C671.532 404.284 670.929 401.614 670.929 398.044L670.929 393.679C671.057 387.548 672.185 383.057 678.813 383.039V383.039ZM609.061 383.508L609.061 401.578C609.061 402.661 609.174 403.454 609.438 403.923C609.974 404.926 611.362 404.67 612.117 404.176C612.552 403.894 612.903 403.509 613.135 403.058L613.135 383.508L618.907 383.508L618.907 408.143L614.38 408.143L613.89 405.113L613.777 405.113C612.532 407.385 610.683 408.539 608.231 408.539C604.457 408.53 603.534 405.931 603.314 403.29L603.299 403.104C603.272 402.704 603.256 402.304 603.252 401.903L603.252 383.508L609.061 383.508L609.061 383.508ZM638.825 383.508L638.825 401.578C638.825 402.661 638.938 403.454 639.203 403.923C639.739 404.926 641.127 404.67 641.881 404.176C642.317 403.894 642.668 403.509 642.9 403.058L642.9 383.508L648.671 383.508L648.671 408.143L644.144 408.143L643.654 405.113L643.541 405.113C642.296 407.385 640.447 408.539 637.996 408.539C634.222 408.53 633.298 405.931 633.078 403.29L633.064 403.104C633.037 402.704 633.021 402.304 633.016 401.903L633.016 383.508L638.825 383.508ZM592.311 383.039C594.198 383.039 595.744 383.4 596.876 384.157C598.008 384.915 598.875 386.069 599.403 387.656C599.932 389.243 600.196 391.371 600.196 394.004L600.196 397.575C600.196 400.208 599.932 402.3 599.403 403.887C598.875 405.474 598.045 406.628 596.876 407.386C595.707 408.107 594.122 408.504 592.161 408.504C590.123 408.54 588.539 408.143 587.37 407.422C586.2 406.664 585.37 405.51 584.88 403.923C584.389 402.336 584.163 400.244 584.163 397.611L584.163 394.04C584.163 391.407 584.427 389.243 584.993 387.655C585.559 386.033 586.426 384.878 587.634 384.157C588.841 383.435 590.387 383.039 592.311 383.039L592.311 383.039ZM657.725 373.156L657.725 386.141L657.763 386.141C658.291 385.203 658.97 384.446 659.913 383.869C660.794 383.302 661.832 383.001 662.893 383.003C664.289 383.003 665.346 383.364 666.138 384.049C666.93 384.77 667.496 385.888 667.835 387.439C668.164 388.942 668.351 391.02 668.363 393.64L668.363 393.896L668.363 397.791C668.363 401.434 667.873 404.139 666.967 405.871C666.025 407.602 664.591 408.468 662.629 408.468C661.536 408.468 660.554 408.215 659.649 407.746C658.849 407.3 658.185 406.661 657.725 405.892L657.65 405.762L657.537 405.762L656.933 408.107L652.142 408.107L652.142 373.157L657.725 373.157L657.725 373.156ZM634.638 374.419L634.638 378.891L628.904 378.891L628.904 408.143L623.245 408.143L623.245 378.891L617.474 378.891L617.474 374.419L634.638 374.419L634.638 374.419ZM572.43 374.419L572.434 374.432C572.489 374.667 573.252 377.909 574.091 381.686L574.157 381.985L574.257 382.438L574.324 382.741L574.357 382.894L574.424 383.199L574.458 383.352L574.524 383.659L574.621 384.107C575.188 386.723 575.729 389.346 576.052 391.227L576.203 391.227C576.513 389.539 576.963 387.38 577.443 385.176L577.569 384.6C577.632 384.312 577.696 384.023 577.76 383.736L577.858 383.29C578.51 380.368 579.181 377.451 579.872 374.537L579.883 374.491L579.9 374.419L585.672 374.419L578.994 397.178L578.994 408.107L573.298 408.107L573.298 397.214L573.26 397.214L566.659 374.418L572.43 374.418L572.43 374.419ZM592.198 386.862C591.406 386.862 590.878 387.259 590.538 388.089C590.199 388.918 590.048 390.181 590.048 391.948L590.048 399.631C590.048 401.434 590.199 402.769 590.501 403.563C590.802 404.356 591.368 404.753 592.198 404.753C592.99 404.753 593.556 404.356 593.896 403.563C594.235 402.769 594.386 401.434 594.386 399.631L594.386 391.948C594.386 390.181 594.235 388.882 593.896 388.089C593.556 387.259 592.99 386.862 592.198 386.862V386.862ZM658.744 387.584C658.284 387.99 657.957 388.49 657.762 389.116L657.725 389.243L657.725 403.238C658.193 403.995 658.857 404.5 660.026 404.536C660.63 404.536 661.12 404.32 661.498 403.887C661.875 403.454 662.139 402.733 662.29 401.723C662.435 400.753 662.51 399.418 662.516 397.717L662.516 394.293C662.516 392.345 662.44 390.866 662.327 389.82C662.176 388.774 661.988 388.017 661.649 387.584C660.992 386.682 659.574 386.693 658.744 387.584ZM678.7 386.754C678.059 386.79 677.606 386.971 677.342 387.295C677.04 387.656 676.851 388.197 676.738 388.99C676.627 389.768 676.589 392.485 676.587 392.594L676.587 394.365L680.812 394.365L680.812 392.803L680.812 392.833C680.81 393.379 680.798 392.516 680.772 391.457L680.768 391.315C680.745 390.384 680.71 389.346 680.662 388.99C680.548 388.161 680.359 387.584 680.058 387.259C679.756 386.934 679.303 386.754 678.7 386.754L678.7 386.754Z" fill="#FF6C00"/>
</g>
</g>
<defs>
<clipPath id="clip0">
<rect width="1200" height="630" fill="white"/>
</clipPath>
<clipPath id="clip1">
<rect width="659.445" height="651.534" fill="white" transform="translate(389.898 -89.2449) rotate(20.8)"/>
</clipPath>
</defs>
</svg>
