<svg width="89" height="70" viewBox="0 0 89 70" fill="none" xmlns="http://www.w3.org/2000/svg">
<path d="M0 0.972168H6.5671V29.2622H0V0.972168Z" fill="#032068"/>
<path d="M19.1794 6.30687H10.0989V0.972168H34.8269V6.30687H25.7465V29.2622H19.1794V6.30687Z" fill="#032068"/>
<path d="M6.5671 46.6404V54.1171H19.7013V59.371H6.5671V69.6766H0V41.3866H21.4444V46.6404H6.5671Z" fill="#032068"/>
<path d="M46.2535 58.886C46.2535 58.9668 46.213 59.5326 46.1319 60.5834H29.633C29.9303 61.9305 30.633 62.9948 31.741 63.7761C32.849 64.5575 34.2273 64.9482 35.8758 64.9482C37.0109 64.9482 38.0108 64.7865 38.8756 64.4632C39.7675 64.1129 40.5917 63.5741 41.3484 62.8466L44.7131 66.4839C42.6592 68.8279 39.6594 69.9999 35.7137 69.9999C33.2544 69.9999 31.0789 69.5285 29.1871 68.5854C27.2954 67.6155 25.836 66.2818 24.8091 64.5844C23.7821 62.887 23.2686 60.9606 23.2686 58.8052C23.2686 56.6767 23.7686 54.7637 24.7685 53.0663C25.7955 51.342 27.1873 50.0083 28.9439 49.0653C30.7276 48.0953 32.7139 47.6104 34.9029 47.6104C37.0379 47.6104 38.9702 48.0684 40.6998 48.9845C42.4294 49.9005 43.7807 51.2207 44.7536 52.9451C45.7535 54.6425 46.2535 56.6228 46.2535 58.886ZM34.9435 52.3793C33.5112 52.3793 32.3085 52.7834 31.3356 53.5917C30.3627 54.4 29.7682 55.5047 29.552 56.9057H40.2945C40.0783 55.5316 39.4837 54.4404 38.5108 53.6321C37.5379 52.7969 36.3488 52.3793 34.9435 52.3793Z" fill="#032068"/>
<path d="M57.801 69.9999C55.9903 69.9999 54.2202 69.7844 52.4906 69.3533C50.761 68.8953 49.3827 68.3295 48.3558 67.6559L50.4637 63.1295C51.4366 63.7492 52.6122 64.2611 53.9905 64.6652C55.3688 65.0424 56.72 65.231 58.0443 65.231C60.7197 65.231 62.0575 64.5709 62.0575 63.2507C62.0575 62.6311 61.6926 62.1865 60.963 61.9171C60.2333 61.6476 59.1118 61.4186 57.5983 61.23C55.8147 60.9606 54.3418 60.6508 53.1797 60.3005C52.0177 59.9502 51.0042 59.3305 50.1394 58.4414C49.3016 57.5523 48.8827 56.286 48.8827 54.6425C48.8827 53.2684 49.2746 52.056 50.0583 51.0052C50.8691 49.9275 52.0312 49.0922 53.5446 48.4995C55.085 47.9067 56.8957 47.6104 58.9766 47.6104C60.5171 47.6104 62.044 47.7855 63.5574 48.1358C65.0978 48.4591 66.368 48.9171 67.3679 49.5099L65.26 53.9958C63.3412 52.9181 61.2467 52.3793 58.9766 52.3793C57.6254 52.3793 56.6119 52.5679 55.9363 52.9451C55.2607 53.3223 54.9229 53.8072 54.9229 54.4C54.9229 55.0736 55.2877 55.5451 56.0174 55.8145C56.7471 56.0839 57.9091 56.3399 59.5036 56.5824C61.2873 56.8787 62.7466 57.2021 63.8817 57.5523C65.0167 57.8756 66.0032 58.4818 66.8409 59.371C67.6787 60.2601 68.0976 61.4995 68.0976 63.0891C68.0976 64.4362 67.6922 65.6352 66.8815 66.686C66.0707 67.7367 64.8816 68.5585 63.3142 69.1512C61.7737 69.717 59.936 69.9999 57.801 69.9999Z" fill="#032068"/>
<path d="M86.0659 68.6259C85.4444 69.0839 84.6741 69.4341 83.7553 69.6766C82.8635 69.8922 81.9176 69.9999 80.9176 69.9999C78.3232 69.9999 76.3099 69.3398 74.8775 68.0196C73.4722 66.6994 72.7696 64.7595 72.7696 62.2V53.2684H69.4049V48.4187H72.7696V43.1244H79.0935V48.4187H84.5255V53.2684H79.0935V62.1191C79.0935 63.0352 79.3232 63.7492 79.7826 64.2611C80.269 64.7461 80.9447 64.9886 81.8095 64.9886C82.8094 64.9886 83.6607 64.7191 84.3633 64.1803L86.0659 68.6259Z" fill="#032068"/>
<path d="M72.933 39.8695C71.7491 39.8652 70.5882 40.1699 69.585 40.748C68.8317 41.1605 68.1802 41.7129 67.6722 42.3701C67.1641 43.0272 66.8107 43.7746 66.6345 44.5644C66.4583 45.3542 66.4632 46.1692 66.6488 46.9572C66.8344 47.7452 67.1967 48.489 67.7125 49.141C68.2283 49.7929 68.8864 50.3388 69.6446 50.7437C70.4028 51.1486 71.2444 51.4036 72.1159 51.4924C72.9873 51.5813 73.8693 51.502 74.7055 51.2597C75.5417 51.0173 76.3138 50.6173 76.9724 50.085C77.963 49.3202 78.6735 48.2934 79.0071 47.1441C79.3407 45.9948 79.2813 44.7789 78.837 43.6618C78.3927 42.5447 77.5849 41.5805 76.5237 40.9005C75.4624 40.2205 74.1991 39.8575 72.9057 39.8611L72.933 39.8695ZM75.826 48.8217C75.0205 49.4498 73.9982 49.7938 72.9421 49.7922C71.7501 49.7922 70.607 49.3568 69.7641 48.5817C68.9213 47.8066 68.4478 46.7553 68.4478 45.6591C68.4453 44.961 68.6371 44.2739 69.005 43.6632C69.3728 43.0526 69.9045 42.5386 70.5494 42.1703C71.5114 41.6057 72.6712 41.3997 73.7927 41.594C74.9141 41.7884 75.9128 42.3685 76.5854 43.2164C77.258 44.0642 77.5539 45.1159 77.4128 46.1573C77.2717 47.1987 76.7043 48.1516 75.826 48.8217Z" fill="#8D79C4"/>
<path d="M73.0959 36.0915C71.49 36.0919 69.8936 36.3322 68.3626 36.8042L60.3866 26.1987C62.544 24.008 63.9925 21.2486 64.5521 18.2633C65.1117 15.2781 64.7577 12.1986 63.5342 9.40745C62.3107 6.61635 60.2715 4.2367 57.6701 2.56418C55.0687 0.891658 52.0197 0 48.902 0C45.7842 0 42.7352 0.891658 40.1338 2.56418C37.5324 4.2367 35.4932 6.61635 34.2697 9.40745C33.0462 12.1986 32.6923 15.2781 33.2519 18.2633C33.8115 21.2486 35.26 24.008 37.4174 26.1987L29.4588 36.8211C26.3283 35.8682 22.9717 35.8804 19.8486 36.856C16.7255 37.8316 13.9886 39.723 12.0126 42.2712C10.0366 44.8193 8.91814 47.8997 8.81035 51.0905C8.70257 54.2812 9.61073 57.4265 11.4105 60.0954C13.2102 62.7644 15.8136 64.8267 18.8641 65.9999C21.9146 67.1731 25.2631 67.3999 28.4512 66.6491C31.6392 65.8984 34.5109 64.2069 36.673 61.8062C38.8352 59.4055 40.1821 56.413 40.5293 53.2385H57.2746C57.6047 56.2125 58.8128 59.0298 60.7528 61.3498C62.6928 63.6698 65.2818 65.3932 68.2067 66.3117C71.1316 67.2301 74.2672 67.3042 77.2344 66.5251C80.2017 65.7461 82.8736 64.1471 84.9271 61.9215C86.9806 59.6959 88.3278 56.939 88.8059 53.9841C89.284 51.0292 88.8724 48.0027 87.621 45.2706C86.3696 42.5385 84.3319 40.2177 81.7542 38.5887C79.1765 36.9597 76.1693 36.0924 73.0959 36.0915ZM56.5337 27.0471L56.1153 27.3101L55.5922 27.5901L55.1651 27.8107C54.9821 27.904 54.799 27.9804 54.6159 28.0567L54.1801 28.2434C53.9883 28.3226 53.7965 28.3905 53.6048 28.447L53.1602 28.5997L52.5587 28.7694L52.1229 28.8797C51.9137 28.9306 51.6958 28.9646 51.4865 29.007L51.0594 29.0834C50.8241 29.0834 50.58 29.1427 50.3359 29.1597L49.9785 29.2021C49.6211 29.2021 49.255 29.2021 48.8889 29.2021C48.5228 29.2021 48.1567 29.2021 47.7906 29.2021L47.4332 29.1597C47.1891 29.1597 46.9537 29.1597 46.7096 29.0834L46.2912 29.0409C46.082 29.0409 45.8641 28.9646 45.6549 28.9137L45.2103 28.8034C45.0098 28.744 44.8093 28.7016 44.6176 28.6337C44.4635 28.5917 44.3121 28.5407 44.1643 28.481L43.6064 28.2858C43.4495 28.2264 43.31 28.1586 43.1618 28.0907L42.6214 27.8531L42.1855 27.6325L41.6712 27.3525L41.2441 27.0895L40.939 26.8859V25.7829C41.0074 23.774 41.8753 21.8695 43.3596 20.4719C44.8438 19.0743 46.8281 18.293 48.8932 18.293C50.9584 18.293 52.9427 19.0743 54.4269 20.4719C55.9112 21.8695 56.7791 23.774 56.8475 25.7829V26.8859L56.5337 27.0471ZM48.9063 1.70419C51.7457 1.70329 54.5198 2.53348 56.8682 4.08692C59.2165 5.64035 61.0307 7.84524 62.075 10.4152C63.1193 12.9851 63.3455 15.8013 62.7242 18.498C62.1029 21.1946 60.6627 23.6471 58.5909 25.5369C58.5467 23.9599 58.0966 22.4189 57.2818 21.0552C56.467 19.6914 55.3136 18.5485 53.9273 17.7312L53.8314 17.6718C52.3798 16.8298 50.7265 16.3732 49.0368 16.3476C47.3471 16.3221 45.6801 16.7285 44.2023 17.5263C42.7245 18.3241 41.4876 19.4853 40.6151 20.8939C39.7427 22.3026 39.2652 23.9094 39.2305 25.5538C37.1529 23.6657 35.7074 21.2126 35.0822 18.5138C34.4569 15.815 34.6809 12.9955 35.7248 10.4222C36.7688 7.849 38.5844 5.64124 40.9354 4.08633C43.2864 2.53141 46.0639 1.70135 48.9063 1.70419ZM38.6988 27.361C38.9864 27.5901 39.2741 27.8192 39.5704 28.0313C42.285 29.9479 45.5527 30.98 48.9063 30.98C52.2599 30.98 55.5276 29.9479 58.2422 28.0313C58.5386 27.822 58.8291 27.6014 59.1139 27.3695L66.6628 37.449C63.8559 38.6592 61.4682 40.6332 59.7872 43.1335C58.1061 45.6337 57.2033 48.5536 57.1874 51.5416H40.6252C40.6075 48.5529 39.703 45.6328 38.0204 43.1327C36.3379 40.6325 33.949 38.6588 31.1411 37.449L38.6988 27.361ZM23.6271 65.3457H23.2697L22.5462 65.2608L22.1278 65.1845C21.9186 65.1845 21.7007 65.1081 21.4914 65.0572L21.012 64.9384L20.4193 64.7772L19.966 64.6245C19.7829 64.5566 19.5911 64.4973 19.4081 64.4209L18.9635 64.2342L18.4231 63.9882L17.9872 63.7676L17.5252 63.4622L17.0719 63.2416L16.7669 63.0464V61.9435C16.7315 60.9052 16.9111 59.8706 17.295 58.9013C17.6788 57.932 18.2591 57.0477 19.0012 56.3011C19.7433 55.5545 20.6321 54.9608 21.6147 54.5553C22.5974 54.1498 23.6538 53.9409 24.7211 53.9409C25.7884 53.9409 26.8448 54.1498 27.8274 54.5553C28.8101 54.9608 29.6989 55.5545 30.441 56.3011C31.1831 57.0477 31.7634 57.932 32.1472 58.9013C32.531 59.8706 32.7106 60.9052 32.6753 61.9435V63.0379L32.3441 63.2416L31.9257 63.4961C31.7513 63.5979 31.577 63.6912 31.4026 63.7761L30.9755 64.0052L30.4263 64.2427L29.9905 64.4379L29.4152 64.6415L28.9706 64.7857C28.7788 64.8536 28.5696 64.9045 28.3691 64.9554L27.9333 65.0657C27.7241 65.1166 27.5062 65.1506 27.297 65.193L26.8698 65.2693L26.1463 65.3542H25.7889C25.4315 65.3542 25.0654 65.3542 24.6993 65.3542C24.3332 65.3542 23.9845 65.3712 23.6271 65.3457ZM34.41 61.655C34.3345 59.2051 33.2815 56.8801 31.4743 55.1732C29.6672 53.4663 27.248 52.5116 24.7298 52.5116C22.2116 52.5116 19.7924 53.4663 17.9853 55.1732C16.1781 56.8801 15.1251 59.2051 15.0496 61.655C13.3309 60.0931 12.0388 58.1393 11.2897 55.9699C10.5406 53.8005 10.3582 51.4837 10.7588 49.2285C11.1595 46.9733 12.1306 44.8507 13.5846 43.0521C15.0387 41.2535 16.9298 39.8355 19.0876 38.926C21.2453 38.0165 23.6017 37.6441 25.9442 37.8424C28.2868 38.0407 30.5417 38.8035 32.5057 40.062C34.4697 41.3204 36.0809 43.035 37.1941 45.0509C38.3072 47.0669 38.8872 49.3208 38.8818 51.6095C38.8818 51.8555 38.8818 52.11 38.8818 52.3561C38.6692 55.9004 37.0651 59.2295 34.4013 61.655H34.41ZM81.0632 62.9955L80.7669 63.1822L80.3223 63.4622L79.8254 63.7337C79.6685 63.81 79.5203 63.8949 79.3634 63.9627C79.2065 64.0306 79.0322 64.1155 78.8578 64.1918L78.3784 64.3954C78.2128 64.4633 78.0472 64.5142 77.8815 64.5736C77.7159 64.633 77.5329 64.7009 77.3498 64.7518C77.1667 64.8027 77.0534 64.8366 76.9052 64.8791C76.757 64.9215 76.5043 64.9894 76.3038 65.0318C76.1033 65.0742 76.0597 65.0827 75.9377 65.1081C75.8156 65.1336 75.4757 65.2015 75.2403 65.2354H75.0572C74.4102 65.3231 73.7579 65.3685 73.1046 65.3712C72.4398 65.3688 71.7758 65.3234 71.1172 65.2354H70.969C70.7249 65.2354 70.4808 65.1506 70.2455 65.0997L69.9055 65.0403L69.2779 64.8706L68.8595 64.7603L68.3016 64.5736L67.8396 64.4039L67.334 64.1918L66.8546 63.9712C66.6889 63.8949 66.532 63.81 66.3751 63.7252L65.9044 63.4706L65.4686 63.1822L65.1896 63.004V61.901C65.1543 60.8628 65.3339 59.8282 65.7178 58.8589C66.1016 57.8896 66.6818 57.0053 67.4239 56.2587C68.166 55.512 69.0549 54.9183 70.0375 54.5129C71.0202 54.1074 72.0766 53.8984 73.1439 53.8984C74.2112 53.8984 75.2676 54.1074 76.2502 54.5129C77.2329 54.9183 78.1217 55.512 78.8638 56.2587C79.6059 57.0053 80.1861 57.8896 80.57 58.8589C80.9538 59.8282 81.1334 60.8628 81.0981 61.901L81.0632 62.9955ZM82.8066 61.655C82.7311 59.2051 81.6781 56.8801 79.8709 55.1732C78.0638 53.4663 75.6446 52.5116 73.1264 52.5116C70.6082 52.5116 68.1891 53.4663 66.3819 55.1732C64.5748 56.8801 63.5218 59.2051 63.4462 61.655C60.7633 59.2299 59.1589 55.8813 58.9744 52.3221C58.9744 52.0761 58.9744 51.83 58.9744 51.5925C58.9819 48.7604 59.883 45.9989 61.556 43.6817C63.2289 41.3645 65.5927 39.6034 68.3277 38.6368C69.8537 38.0841 71.4677 37.7969 73.0959 37.7884C75.9428 37.7801 78.7262 38.6076 81.0825 40.1627C83.4389 41.7178 85.2588 43.9282 86.3046 46.5055C87.3504 49.0828 87.5735 51.9071 86.9448 54.6097C86.3161 57.3122 84.8649 59.7675 82.7805 61.655H82.8066Z" fill="#8D79C4"/>
<path d="M24.9402 39.8611C23.6828 39.8611 22.4537 40.2032 21.4083 40.8442C20.3629 41.4852 19.5481 42.3962 19.0669 43.4621C18.5858 44.528 18.4599 45.7009 18.7052 46.8324C18.9505 47.964 19.5559 49.0034 20.445 49.8192C21.334 50.635 22.4668 51.1906 23.6999 51.4157C24.9331 51.6407 26.2113 51.5252 27.3729 51.0837C28.5345 50.6422 29.5274 49.8945 30.2259 48.9352C30.9245 47.976 31.2973 46.8481 31.2973 45.6944C31.2973 44.9284 31.1329 44.1698 30.8134 43.4621C30.4939 42.7544 30.0256 42.1113 29.4353 41.5696C28.845 41.028 28.1442 40.5983 27.3729 40.3051C26.6016 40.012 25.775 39.8611 24.9402 39.8611ZM24.9402 49.8467C24.0452 49.8467 23.1703 49.6031 22.4261 49.1469C21.682 48.6906 21.102 48.0421 20.7595 47.2834C20.417 46.5247 20.3274 45.6898 20.502 44.8844C20.6766 44.0789 21.1076 43.339 21.7404 42.7583C22.3733 42.1776 23.1796 41.7822 24.0573 41.6219C24.9351 41.4617 25.845 41.544 26.6718 41.8582C27.4987 42.1725 28.2054 42.7047 28.7026 43.3875C29.1999 44.0704 29.4653 44.8732 29.4653 45.6944C29.451 46.7916 28.9697 47.8402 28.1241 48.616C27.2786 49.3919 26.1359 49.8336 24.9402 49.8467Z" fill="#8D79C4"/>
<path d="M48.9004 14.5833C50.0613 14.5833 51.1962 14.241 52.1614 13.5996C53.1266 12.9583 53.8787 12.0467 54.3226 10.9803C54.7665 9.91394 54.8822 8.74062 54.6551 7.60884C54.428 6.47705 53.8683 5.43767 53.0468 4.6222C52.2252 3.80673 51.1788 3.25182 50.04 3.02769C48.9011 2.80356 47.721 2.92028 46.6489 3.36308C45.5768 3.80588 44.6609 4.55486 44.0171 5.51525C43.3733 6.47565 43.0306 7.60429 43.0322 8.75837C43.0345 10.304 43.6537 11.7856 44.754 12.8777C45.8542 13.9699 47.3455 14.5833 48.9004 14.5833ZM48.9004 4.60611C49.7265 4.60611 50.5341 4.84963 51.221 5.30589C51.9079 5.76215 52.4433 6.41064 52.7594 7.16937C53.0756 7.92809 53.1583 8.76297 52.9971 9.56843C52.836 10.3739 52.4381 11.1138 51.854 11.6945C51.2698 12.2752 50.5255 12.6706 49.7153 12.8308C48.905 12.9911 48.0651 12.9088 47.3019 12.5946C46.5386 12.2803 45.8863 11.7481 45.4273 11.0652C44.9683 10.3824 44.7233 9.5796 44.7233 8.75837C44.7233 7.65712 45.1634 6.60098 45.9468 5.82228C46.7301 5.04358 47.7925 4.60611 48.9004 4.60611Z" fill="#8D79C4"/>
</svg>
