<svg width="96" height="70" viewBox="0 0 96 70" fill="none" xmlns="http://www.w3.org/2000/svg">
<path d="M65.724 24.4274C65.4792 24.4278 65.2429 24.3393 65.06 24.179L60 19.7443L65.341 15.0632C65.5401 14.8953 65.798 14.8111 66.0594 14.8288C66.3208 14.8464 66.5647 14.9645 66.7387 15.1576C66.9127 15.3507 67.0029 15.6035 66.9898 15.8614C66.9768 16.1194 66.8616 16.362 66.669 16.5371L63.01 19.7443L66.388 22.704C66.5398 22.8368 66.647 23.0119 66.6954 23.2062C66.7438 23.4004 66.7312 23.6046 66.6591 23.7916C66.5871 23.9786 66.459 24.1396 66.292 24.2531C66.125 24.3667 65.9269 24.4275 65.724 24.4274ZM74.669 24.4255L80.01 19.7443L74.95 15.3097C74.7517 15.1361 74.4917 15.0472 74.227 15.0626C73.9622 15.0781 73.7146 15.1965 73.5385 15.392C73.3624 15.5875 73.2723 15.8439 73.2879 16.1049C73.3036 16.3658 73.4237 16.61 73.622 16.7836L77 19.7443L73.341 22.9505C73.1426 23.1242 73.0223 23.3684 73.0066 23.6294C72.9908 23.8905 73.0809 24.1471 73.257 24.3426C73.4331 24.5382 73.6808 24.6568 73.9456 24.6724C74.2104 24.6879 74.4706 24.5991 74.669 24.4255ZM69.991 25.8225L71.991 13.9915C72.0166 13.8622 72.0156 13.7292 71.9882 13.6002C71.9607 13.4713 71.9073 13.3491 71.8312 13.2409C71.755 13.1326 71.6576 13.0405 71.5448 12.97C71.4319 12.8995 71.3058 12.852 71.174 12.8303C71.0423 12.8087 70.9074 12.8132 70.7774 12.8438C70.6474 12.8744 70.525 12.9303 70.4173 13.0083C70.3097 13.0863 70.2189 13.1848 70.1505 13.298C70.0821 13.4111 70.0374 13.5367 70.019 13.6671L68.019 25.4981C67.9934 25.6274 67.9944 25.7605 68.0218 25.8894C68.0493 26.0183 68.1027 26.1405 68.1788 26.2488C68.255 26.357 68.3524 26.4491 68.4652 26.5196C68.5781 26.5901 68.7042 26.6376 68.8359 26.6593C68.9677 26.681 69.1026 26.6764 69.2326 26.6458C69.3626 26.6153 69.485 26.5593 69.5927 26.4813C69.7003 26.4033 69.7911 26.3048 69.8595 26.1917C69.9279 26.0785 69.9726 25.953 69.991 25.8225Z" fill="#5FBCFF"/>
<path d="M43.724 24.4274C43.4792 24.4277 43.2429 24.3393 43.06 24.1789L38 19.7443L43.341 15.0632C43.5401 14.8952 43.798 14.8111 44.0594 14.8287C44.3208 14.8464 44.5647 14.9645 44.7387 15.1576C44.9127 15.3507 45.0029 15.6034 44.9898 15.8614C44.9768 16.1194 44.8616 16.362 44.669 16.5371L41.01 19.7443L44.388 22.704C44.5398 22.8368 44.647 23.0119 44.6954 23.2061C44.7438 23.4004 44.7312 23.6046 44.6591 23.7916C44.5871 23.9786 44.459 24.1395 44.292 24.2531C44.125 24.3666 43.9269 24.4274 43.724 24.4274ZM52.669 24.4254L58.01 19.7443L52.95 15.3096C52.7517 15.136 52.4917 15.0471 52.227 15.0626C51.9622 15.078 51.7146 15.1965 51.5385 15.392C51.3624 15.5874 51.2723 15.8438 51.2879 16.1048C51.3036 16.3658 51.4237 16.61 51.622 16.7836L55 19.7443L51.341 22.9505C51.1426 23.1241 51.0223 23.3683 51.0066 23.6294C50.9908 23.8905 51.0809 24.147 51.257 24.3426C51.4331 24.5382 51.6808 24.6568 51.9456 24.6723C52.2104 24.6878 52.4706 24.599 52.669 24.4254Z" fill="#5FBCFF"/>
<path d="M0 0H6.71468V28.6885H0V0Z" fill="#032068"/>
<path d="M19.6104 5.40984H10.3259V0H35.6096V5.40984H26.3251V28.6885H19.6104V5.40984Z" fill="#032068"/>
<path d="M6.71468 46.3115V53.8934H20.144V59.2213H6.71468V69.6721H0V40.9836H21.9263V46.3115H6.71468Z" fill="#032068"/>
<path d="M47.2929 58.7295C47.2929 58.8115 47.2514 59.3852 47.1686 60.4508H30.299C30.6029 61.8169 31.3214 62.8962 32.4543 63.6885C33.5872 64.4809 34.9965 64.877 36.682 64.877C37.8426 64.877 38.865 64.7131 39.7492 64.3852C40.6611 64.0301 41.5039 63.4836 42.2776 62.7459L45.7179 66.4344C43.6178 68.8115 40.5506 70 36.5163 70C34.0017 70 31.7773 69.5219 29.843 68.5656C27.9088 67.582 26.4166 66.2295 25.3666 64.5082C24.3165 62.7869 23.7915 60.8333 23.7915 58.6475C23.7915 56.4891 24.3027 54.5492 25.3251 52.8279C26.3752 51.0792 27.7982 49.7268 29.5943 48.7705C31.4181 47.7869 33.4491 47.2951 35.6873 47.2951C37.8702 47.2951 39.846 47.7596 41.6144 48.6885C43.3829 49.6175 44.7645 50.9563 45.7593 52.7049C46.7817 54.4262 47.2929 56.4344 47.2929 58.7295ZM35.7287 52.1311C34.2642 52.1311 33.0346 52.541 32.0398 53.3607C31.045 54.1803 30.4371 55.3005 30.2161 56.7213H41.2C40.9789 55.3279 40.371 54.2213 39.3762 53.4016C38.3814 52.5546 37.1656 52.1311 35.7287 52.1311Z" fill="#032068"/>
<path d="M59.0999 70C57.2486 70 55.4386 69.7814 53.6702 69.3443C51.9017 68.8798 50.4924 68.306 49.4424 67.6229L51.5977 63.0328C52.5925 63.6612 53.7945 64.1803 55.2038 64.5902C56.613 64.9727 57.9946 65.1639 59.3486 65.1639C62.0842 65.1639 63.452 64.4945 63.452 63.1557C63.452 62.5273 63.079 62.0765 62.3329 61.8033C61.5868 61.5301 60.4401 61.2978 58.8927 61.1066C57.069 60.8333 55.563 60.5191 54.3748 60.1639C53.1866 59.8087 52.1504 59.1803 51.2661 58.2787C50.4095 57.377 49.9812 56.0929 49.9812 54.4262C49.9812 53.0328 50.3819 51.8033 51.1832 50.7377C52.0122 49.6448 53.2004 48.7978 54.7478 48.1967C56.3229 47.5956 58.1742 47.2951 60.3019 47.2951C61.877 47.2951 63.4382 47.4727 64.9856 47.8279C66.5607 48.1557 67.8594 48.6202 68.8818 49.2213L66.7265 53.7705C64.7646 52.6776 62.6231 52.1311 60.3019 52.1311C58.9203 52.1311 57.8841 52.3224 57.1933 52.7049C56.5025 53.0874 56.1571 53.5792 56.1571 54.1803C56.1571 54.8634 56.5301 55.3415 57.2762 55.6147C58.0223 55.888 59.2105 56.1475 60.8408 56.3934C62.6645 56.694 64.1567 57.0219 65.3172 57.377C66.4778 57.7049 67.4864 58.3197 68.343 59.2213C69.1996 60.1229 69.6279 61.3798 69.6279 62.9918C69.6279 64.3579 69.2134 65.5738 68.3844 66.6393C67.5555 67.7049 66.3396 68.5382 64.737 69.1393C63.1619 69.7131 61.2829 70 59.0999 70Z" fill="#032068"/>
<path d="M88 68.6066C87.3644 69.071 86.5769 69.4262 85.6374 69.6721C84.7256 69.8907 83.7584 70 82.736 70C80.0833 70 78.0247 69.3306 76.5602 67.9918C75.1233 66.653 74.4048 64.6858 74.4048 62.0902V53.0328H70.9646V48.1148H74.4048V42.7459H80.8708V48.1148H86.4249V53.0328H80.8708V62.0082C80.8708 62.9372 81.1057 63.6612 81.5755 64.1803C82.0728 64.6721 82.7636 64.918 83.6479 64.918C84.6703 64.918 85.5407 64.6448 86.2592 64.0984L88 68.6066Z" fill="#032068"/>
<path fill-rule="evenodd" clip-rule="evenodd" d="M29 1.97192H90V36.479H29V1.97192ZM30.4469 3.38963H88.5531V35.0613H30.4469V3.38963Z" fill="#5FBCFF"/>
<path fill-rule="evenodd" clip-rule="evenodd" d="M28.6762 38.4507H90.3238L96 54.2253H23L28.6762 38.4507ZM29.7148 39.8442H89.2852L93.9519 52.8318H25.0481L29.7148 39.8442Z" fill="#5FBCFF"/>
<path d="M47.6021 52.5895L47.3711 53.2395L46 52.797L46.2309 52.1331L48.3093 46.3381H71.6907L73.7691 52.1331L74 52.797L72.6289 53.2395L72.3979 52.5895L70.6515 47.7212H49.3485L47.6021 52.5895Z" fill="#5FBCFF"/>
</svg>
