<svg width="88" height="70" viewBox="0 0 88 70" fill="none" xmlns="http://www.w3.org/2000/svg">
<path d="M0 0H6.71468V28.6885H0V0Z" fill="#032068"/>
<path d="M19.6104 5.40984H10.3259V0H35.6096V5.40984H26.3251V28.6885H19.6104V5.40984Z" fill="#032068"/>
<path d="M6.71468 46.3115V53.8934H20.144V59.2213H6.71468V69.6721H0V40.9836H21.9263V46.3115H6.71468Z" fill="#032068"/>
<path d="M47.2929 58.7295C47.2929 58.8115 47.2514 59.3852 47.1686 60.4508H30.299C30.6029 61.8169 31.3214 62.8962 32.4543 63.6885C33.5872 64.4809 34.9965 64.877 36.682 64.877C37.8426 64.877 38.865 64.7131 39.7492 64.3852C40.6611 64.0301 41.5039 63.4836 42.2776 62.7459L45.7179 66.4344C43.6178 68.8115 40.5506 70 36.5163 70C34.0017 70 31.7773 69.5219 29.843 68.5656C27.9088 67.582 26.4166 66.2295 25.3666 64.5082C24.3165 62.7869 23.7915 60.8333 23.7915 58.6475C23.7915 56.4891 24.3027 54.5492 25.3251 52.8279C26.3752 51.0792 27.7982 49.7268 29.5943 48.7705C31.4181 47.7869 33.4491 47.2951 35.6873 47.2951C37.8702 47.2951 39.846 47.7596 41.6144 48.6885C43.3829 49.6175 44.7645 50.9563 45.7593 52.7049C46.7817 54.4262 47.2929 56.4344 47.2929 58.7295ZM35.7287 52.1311C34.2642 52.1311 33.0346 52.541 32.0398 53.3607C31.045 54.1803 30.4371 55.3005 30.2161 56.7213H41.2C40.9789 55.3279 40.371 54.2213 39.3762 53.4016C38.3814 52.5546 37.1656 52.1311 35.7287 52.1311Z" fill="#032068"/>
<path d="M59.0999 70C57.2486 70 55.4386 69.7814 53.6702 69.3443C51.9017 68.8798 50.4924 68.306 49.4424 67.6229L51.5977 63.0328C52.5925 63.6612 53.7945 64.1803 55.2038 64.5902C56.613 64.9727 57.9946 65.1639 59.3486 65.1639C62.0842 65.1639 63.452 64.4945 63.452 63.1557C63.452 62.5273 63.079 62.0765 62.3329 61.8033C61.5868 61.5301 60.4401 61.2978 58.8927 61.1066C57.069 60.8333 55.563 60.5191 54.3748 60.1639C53.1866 59.8087 52.1504 59.1803 51.2661 58.2787C50.4095 57.377 49.9812 56.0929 49.9812 54.4262C49.9812 53.0328 50.3819 51.8033 51.1832 50.7377C52.0122 49.6448 53.2004 48.7978 54.7478 48.1967C56.3229 47.5956 58.1742 47.2951 60.3019 47.2951C61.877 47.2951 63.4382 47.4727 64.9856 47.8279C66.5607 48.1557 67.8594 48.6202 68.8818 49.2213L66.7265 53.7705C64.7646 52.6776 62.6231 52.1311 60.3019 52.1311C58.9203 52.1311 57.8841 52.3224 57.1933 52.7049C56.5025 53.0874 56.1571 53.5792 56.1571 54.1803C56.1571 54.8634 56.5301 55.3415 57.2762 55.6147C58.0223 55.888 59.2105 56.1475 60.8408 56.3934C62.6645 56.694 64.1567 57.0219 65.3172 57.377C66.4778 57.7049 67.4864 58.3197 68.343 59.2213C69.1996 60.1229 69.6279 61.3798 69.6279 62.9918C69.6279 64.3579 69.2134 65.5738 68.3844 66.6393C67.5555 67.7049 66.3396 68.5382 64.737 69.1393C63.1619 69.7131 61.2829 70 59.0999 70Z" fill="#032068"/>
<path d="M88 68.6066C87.3644 69.071 86.5769 69.4262 85.6374 69.6721C84.7256 69.8907 83.7584 70 82.736 70C80.0833 70 78.0247 69.3306 76.5602 67.9918C75.1233 66.653 74.4048 64.6858 74.4048 62.0902V53.0328H70.9646V48.1148H74.4048V42.7459H80.8708V48.1148H86.4249V53.0328H80.8708V62.0082C80.8708 62.9372 81.1057 63.6612 81.5755 64.1803C82.0728 64.6721 82.7636 64.918 83.6479 64.918C84.6703 64.918 85.5407 64.6448 86.2592 64.0984L88 68.6066Z" fill="#032068"/>
<path d="M78.5922 64.1282C78.4183 64.1224 78.25 64.066 78.1082 63.966C77.9665 63.866 77.8576 63.7268 77.795 63.5657C76.3294 60.1065 75.1793 56.524 74.3585 52.861C73.5091 49.0707 73.708 45.123 74.9342 41.4357C75.7035 39.4935 76.6617 37.6303 77.795 35.8724C78.7977 34.3407 79.6659 32.7265 80.3902 31.0474C81.3182 28.5881 81.6883 25.9559 81.4739 23.3385C81.2596 20.7211 80.4662 18.1828 79.1502 15.9044C76.4283 11.3059 72.1262 7.83589 67.0336 6.13131C61.8877 4.42713 56.3616 4.19866 51.0907 5.47216C48.1686 6.04335 45.4083 7.24336 43.0042 8.98765C38.3719 12.591 36.2816 18.6201 34.6962 24.0164C34.4817 24.7333 34.5547 25.5048 34.8999 26.1696L35.325 26.9782C35.7251 27.7348 35.9047 28.5871 35.8437 29.4394C35.7827 30.2917 35.4834 31.1103 34.9796 31.8032L29.8867 38.8342C29.8397 38.9041 29.8074 38.9827 29.7917 39.0653C29.776 39.1478 29.7773 39.2327 29.7955 39.3148C29.8137 39.3969 29.8484 39.4745 29.8976 39.5429C29.9468 39.6113 30.0093 39.6692 30.0816 39.7131L33.3942 41.6642C33.5612 41.7615 33.6915 41.9104 33.7651 42.0882C33.8387 42.266 33.8515 42.4628 33.8016 42.6485L32.9779 45.7246L34.209 46.8407C34.3306 46.9487 34.4198 47.0879 34.4666 47.243C34.5135 47.3981 34.5163 47.563 34.4747 47.7196L34.2267 48.8446C34.8382 49.2749 35.3455 49.8349 35.7117 50.4841C36.0778 51.1332 36.2937 51.8551 36.3436 52.5973V53.0456C36.3436 54.3199 36.3436 56.2447 37.1496 56.9829C37.3666 57.1429 37.6157 57.2547 37.8801 57.3108C38.1445 57.3669 38.4179 57.366 38.6819 57.3081C42.1716 56.8862 55.3776 52.2546 55.5105 52.2106C55.736 52.1326 55.9835 52.1466 56.1986 52.2496C56.4137 52.3526 56.5788 52.5362 56.6574 52.7599C56.7361 52.9837 56.722 53.2293 56.6182 53.4428C56.5144 53.6562 56.3294 53.82 56.1039 53.8981C55.5547 54.0914 42.579 58.6264 38.8944 59.0746C38.3812 59.1702 37.8531 59.152 37.3478 59.0213C36.8425 58.8906 36.3725 58.6507 35.9716 58.3188C34.5367 57.0532 34.5544 54.6451 34.5722 53.0456V52.6149C34.5722 51.0945 32.8007 49.9783 32.8007 49.9783C32.644 49.8839 32.5207 49.7437 32.4477 49.5768C32.3747 49.4099 32.3557 49.2247 32.3933 49.0467L32.6236 47.869L31.3836 46.744C31.2636 46.6351 31.1761 46.4954 31.1308 46.3404C31.0855 46.1854 31.0841 46.0209 31.1267 45.8652L31.915 42.9122L29.1782 41.295C28.8923 41.1264 28.6447 40.9009 28.451 40.6327C28.2572 40.3644 28.1216 40.0593 28.0525 39.7365C27.9835 39.4137 27.9825 39.0802 28.0497 38.757C28.1169 38.4338 28.2508 38.128 28.443 37.8586L33.5359 30.8277C33.8484 30.397 34.0338 29.8885 34.0713 29.3591C34.1089 28.8298 33.9971 28.3005 33.7484 27.8307L33.3322 27.0221C32.7713 25.9581 32.6506 24.7191 32.9956 23.5682C34.6607 17.8643 36.875 11.4837 41.9679 7.58146C44.582 5.70353 47.5774 4.41385 50.7453 3.8023C56.3113 2.47097 62.1423 2.71764 67.5739 4.51419C73.0676 6.35588 77.7088 10.1 80.647 15.0607C82.0976 17.5737 82.9704 20.3737 83.2032 23.2605C83.4359 26.1473 83.0228 29.0494 81.9933 31.7593C81.2266 33.521 80.3204 35.2196 79.283 36.8391C78.1898 38.5013 77.267 40.2678 76.5285 42.1124C75.4168 45.4967 75.2454 49.1158 76.0325 52.5886C76.8352 56.1478 77.9525 59.6299 79.3716 62.9944C79.4555 63.2112 79.4495 63.4522 79.3549 63.6646C79.2603 63.8771 79.0848 64.0437 78.8667 64.1282C78.7759 64.1436 78.683 64.1436 78.5922 64.1282Z" fill="#FF6C00"/>
<path d="M52.9254 64.4445C52.7637 64.4457 52.6047 64.4029 52.4657 64.3208C52.3268 64.2387 52.2131 64.1203 52.1371 63.9787L47.8414 55.8931C47.731 55.6809 47.71 55.434 47.7831 55.2065C47.8562 54.9791 48.0173 54.7898 48.2311 54.6802C48.4449 54.5707 48.6937 54.5499 48.923 54.6224C49.1522 54.6949 49.343 54.8548 49.4534 55.0669L53.7491 63.1525C53.8229 63.2896 53.8587 63.4436 53.853 63.5989C53.8472 63.7542 53.8001 63.9052 53.7164 64.0365C53.6326 64.1678 53.5153 64.2748 53.3764 64.3464C53.2374 64.4181 53.0818 64.4519 52.9254 64.4445Z" fill="#FF6C00"/>
<path d="M61.1333 23.5292C58.8633 22.9475 58.1333 22.3461 58.1333 21.4095C58.1333 20.3348 59.1433 19.5855 60.8333 19.5855C62.6133 19.5855 63.2733 20.4236 63.3333 21.656H65.5433C65.4733 19.9602 64.4233 18.4025 62.3333 17.8996V15.7405H59.3333V17.8701C57.3933 18.2841 55.8333 19.5264 55.8333 21.4292C55.8333 23.7067 57.7433 24.8405 60.5333 25.501C63.0333 26.0926 63.5333 26.9602 63.5333 27.8771C63.5333 28.5574 63.0433 29.6419 60.8333 29.6419C58.7733 29.6419 57.9633 28.7348 57.8533 27.5715H55.6533C55.7733 29.7306 57.4133 30.9433 59.3333 31.3475V33.487H62.3333V31.3672C64.2833 31.0025 65.8333 29.8884 65.8333 27.8672C65.8333 25.0672 63.4033 24.1109 61.1333 23.5292Z" fill="#FF6C00"/>
</svg>
