<svg width="82" height="70" viewBox="0 0 82 70" fill="none" xmlns="http://www.w3.org/2000/svg">
<path d="M0 3.7334H6.25686V30.8919H0V3.7334Z" fill="#032068"/>
<path d="M18.2733 8.85471H9.62185V3.7334H33.1816V8.85471H24.5302V30.8919H18.2733V8.85471Z" fill="#032068"/>
<path d="M6.25686 47.5749V54.7525H18.7706V59.7962H6.25686V69.6897H0V42.5312H20.4314V47.5749H6.25686Z" fill="#032068"/>
<path d="M44.0684 59.3307C44.0684 59.4083 44.0298 59.9514 43.9525 60.9602H28.2331C28.5164 62.2534 29.1858 63.2751 30.2415 64.0252C31.2972 64.7753 32.6103 65.1503 34.181 65.1503C35.2624 65.1503 36.2151 64.9951 37.0391 64.6848C37.8888 64.3485 38.6741 63.8312 39.3951 63.1329L42.6007 66.6247C40.6438 68.8749 37.7858 70.0001 34.0265 70.0001C31.6834 70.0001 29.6107 69.5474 27.8083 68.6421C26.0059 67.711 24.6155 66.4307 23.637 64.8012C22.6586 63.1716 22.1694 61.3223 22.1694 59.2531C22.1694 57.2097 22.6457 55.3733 23.5984 53.7438C24.5768 52.0884 25.9029 50.8081 27.5765 49.9028C29.2759 48.9716 31.1684 48.5061 33.2541 48.5061C35.2882 48.5061 37.1292 48.9458 38.7771 49.8252C40.425 50.7046 41.7124 51.972 42.6394 53.6274C43.592 55.2569 44.0684 57.158 44.0684 59.3307ZM33.2927 53.0842C31.928 53.0842 30.7822 53.4722 29.8553 54.2482C28.9283 55.0241 28.3619 56.0846 28.1559 57.4296H38.3909C38.1849 56.1104 37.6184 55.0629 36.6915 54.287C35.7645 53.4851 34.6316 53.0842 33.2927 53.0842Z" fill="#032068"/>
<path d="M55.0704 70.0001C53.3452 70.0001 51.6587 69.7931 50.0108 69.3793C48.3629 68.9396 47.0498 68.3964 46.0713 67.7498L48.0797 63.4044C49.0066 63.9993 50.1267 64.4908 51.4399 64.8788C52.753 65.2409 54.0405 65.4219 55.3021 65.4219C57.8512 65.4219 59.1258 64.7882 59.1258 63.5208C59.1258 62.9259 58.7782 62.4992 58.083 62.2405C57.3877 61.9819 56.3192 61.762 54.8773 61.5809C53.1779 61.3223 51.7746 61.0248 50.6674 60.6886C49.5602 60.3523 48.5947 59.7574 47.7707 58.9039C46.9725 58.0503 46.5734 56.8347 46.5734 55.2569C46.5734 53.9378 46.9468 52.7738 47.6935 51.7651C48.4659 50.7305 49.5731 49.9287 51.015 49.3596C52.4827 48.7906 54.2078 48.5061 56.1905 48.5061C57.6581 48.5061 59.1129 48.6742 60.5548 49.0104C62.0225 49.3208 63.2326 49.7605 64.1853 50.3296L62.177 54.6361C60.3488 53.6015 58.3533 53.0842 56.1905 53.0842C54.903 53.0842 53.9375 53.2653 53.2938 53.6274C52.65 53.9895 52.3282 54.4551 52.3282 55.0241C52.3282 55.6707 52.6758 56.1234 53.371 56.382C54.0662 56.6407 55.1734 56.8864 56.6925 57.1192C58.3919 57.4037 59.7824 57.7141 60.8638 58.0503C61.9452 58.3607 62.885 58.9427 63.6832 59.7962C64.4814 60.6498 64.8805 61.8396 64.8805 63.3656C64.8805 64.6589 64.4943 65.8099 63.7219 66.8186C62.9494 67.8274 61.8165 68.6163 60.3231 69.1853C58.8554 69.7285 57.1045 70.0001 55.0704 70.0001Z" fill="#032068"/>
<path d="M82 68.6809C81.4078 69.1207 80.674 69.4569 79.7985 69.6897C78.9488 69.8966 78.0476 70.0001 77.0949 70.0001C74.6231 70.0001 72.7048 69.3664 71.3402 68.099C70.0012 66.8316 69.3318 64.9693 69.3318 62.5121V53.9378H66.1261V49.282H69.3318V44.1995H75.3569V49.282H80.5323V53.9378H75.3569V62.4345C75.3569 63.3139 75.5758 63.9993 76.0135 64.4908C76.477 64.9564 77.1207 65.1891 77.9446 65.1891C78.8973 65.1891 79.7084 64.9305 80.3779 64.4132L82 68.6809Z" fill="#032068"/>
<path d="M63.7651 24.5623H54.3058C53.9743 24.5623 53.7061 24.2936 53.7061 23.9616C53.7061 23.6295 53.9743 23.3608 54.3058 23.3608H63.7651C64.0966 23.3608 64.3648 23.6295 64.3648 23.9616C64.3648 24.2936 64.0966 24.5623 63.7651 24.5623Z" fill="#5FBCFF"/>
<path d="M63.7646 33.3809H35.0754C34.7438 33.3809 34.4756 33.1122 34.4756 32.7802C34.4756 32.4481 34.7438 32.1794 35.0754 32.1794H63.7646C64.0962 32.1794 64.3644 32.4481 64.3644 32.7802C64.3644 33.1122 64.0962 33.3809 63.7646 33.3809Z" fill="#5FBCFF"/>
<path d="M63.7646 42.1986H35.0754C34.7438 42.1986 34.4756 41.9299 34.4756 41.5978C34.4756 41.2658 34.7438 40.9971 35.0754 40.9971H63.7646C64.0962 40.9971 64.3644 41.2658 64.3644 41.5978C64.3644 41.9299 64.0962 42.1986 63.7646 42.1986Z" fill="#5FBCFF"/>
<path d="M63.7646 51.0172H35.0754C34.7438 51.0172 34.4756 50.7485 34.4756 50.4164C34.4756 50.0844 34.7438 49.8157 35.0754 49.8157H63.7646C64.0962 49.8157 64.3644 50.0844 64.3644 50.4164C64.3644 50.7485 64.0962 51.0172 63.7646 51.0172Z" fill="#5FBCFF"/>
<path d="M47.1087 26.7249H33.2824C32.9509 26.7249 32.6826 26.4562 32.6826 26.1242V23.2847C32.6826 19.7143 35.5819 16.8103 39.1465 16.8103H41.2457C44.8092 16.8103 47.7084 19.7143 47.7084 23.2847V26.1242C47.7084 26.4562 47.4402 26.7249 47.1087 26.7249ZM33.8822 25.5234H46.5089V23.2847C46.5089 20.3772 44.1473 18.0118 41.2457 18.0118H39.1465C36.2437 18.0118 33.8822 20.3772 33.8822 23.2847V25.5234Z" fill="#5FBCFF"/>
<path d="M40.1954 14.4189C37.8807 14.4189 35.9971 12.5322 35.9971 10.2137C35.9971 7.89525 37.8807 6.00854 40.1954 6.00854C42.5102 6.00854 44.3938 7.89525 44.3938 10.2137C44.3938 12.5322 42.5102 14.4189 40.1954 14.4189ZM40.1954 7.21003C38.5414 7.21003 37.1966 8.55701 37.1966 10.2137C37.1966 11.8705 38.5414 13.2175 40.1954 13.2175C41.8495 13.2175 43.1943 11.8705 43.1943 10.2137C43.1943 8.55701 41.8495 7.21003 40.1954 7.21003Z" fill="#5FBCFF"/>
<path d="M63.7653 16.3092H49.8078C49.4763 16.3092 49.208 16.0405 49.208 15.7084C49.208 15.3764 49.4763 15.1077 49.8078 15.1077H63.7653C64.0968 15.1077 64.365 15.3764 64.365 15.7084C64.365 16.0405 64.0968 16.3092 63.7653 16.3092Z" fill="#5FBCFF"/>
<path d="M69.5715 58.8728H29.271C27.5174 58.8728 26.0918 57.4449 26.0918 55.6884V3.18323C26.0918 1.42794 27.5174 0 29.271 0H58.5964C59.4445 0 60.2434 0.330878 60.8444 0.931621L71.8182 11.9245C72.4192 12.5264 72.7495 13.3255 72.7495 14.1761V55.6884C72.7495 57.4449 71.3239 58.8728 69.5715 58.8728ZM29.271 1.20149C28.1793 1.20149 27.2913 2.09087 27.2913 3.18323V55.6884C27.2913 56.782 28.1793 57.6713 29.271 57.6713H69.5715C70.6621 57.6713 71.55 56.782 71.55 55.6884V14.1761C71.55 13.647 71.3438 13.1483 70.9701 12.774L59.9963 1.78111C59.6226 1.40799 59.1247 1.20149 58.5964 1.20149H29.271Z" fill="#5FBCFF"/>
</svg>
