<svg width="243" height="246" viewBox="0 0 243 246" fill="none" xmlns="http://www.w3.org/2000/svg">
<path d="M92.096 225.996L95.1416 226.625L94.5494 229.451L104.613 231.528L105.205 228.703L108.251 229.331L107.062 235.005L105.009 234.581L97.2286 246L95.4189 245.626L92.9374 232.089L90.9071 231.669L92.096 225.996ZM97.5293 240.281L101.743 233.907L96.2037 232.763L97.5293 240.281Z" fill="#FF6C00"/>
<path d="M77.0236 230.938L82.5744 225.639L85.3864 226.793L76.2663 235.155L74.5582 234.453L74.0551 222.141L76.8462 223.287L77.0236 230.938Z" fill="#FF6C00"/>
<path d="M59.5196 213.775L61.9535 215.271L60.2326 218.029L61.2292 218.641C61.6204 218.864 61.976 218.96 62.2961 218.929C62.6161 218.897 63.0783 218.751 63.6825 218.491L65.7289 217.591L68.3736 219.217L66.0078 220.289C65.1413 220.686 64.5312 220.899 64.1777 220.927C64.6979 221.51 64.9795 222.192 65.0225 222.973C65.0577 223.766 64.8775 224.48 64.4819 225.114C64.2129 225.545 63.8958 225.912 63.5307 226.214C63.1449 226.52 62.6943 226.761 62.1789 226.935C61.6428 227.115 61.024 227.129 60.3225 226.979C59.6131 226.841 58.8687 226.532 58.0893 226.053L53.5856 223.285L59.5196 213.775ZM57.4793 222.442L59.8174 223.879C60.8139 224.491 61.5575 224.404 62.048 223.618C62.5465 222.819 62.2974 222.113 61.3008 221.501L58.9628 220.064L57.4793 222.442Z" fill="#FF6C00"/>
<path d="M33.7797 202.524L40.021 196.799L41.9486 198.869L35.7073 204.594L38.0939 207.157L36.0576 209.025L29.3568 201.828L31.3931 199.96L33.7797 202.524Z" fill="#FF6C00"/>
<path d="M20.4757 190.329C19.1504 188.355 19.0777 186.432 20.2574 184.558C20.545 184.099 20.9743 183.662 21.5454 183.249C22.1039 182.843 22.6229 182.581 23.1022 182.461L27.4655 188.958C28.0782 188.553 28.4138 188.017 28.4722 187.351C28.5222 186.672 28.3264 186.004 27.8847 185.347C27.1929 184.316 26.3448 183.524 25.3403 182.97L25.8719 180.817C27.7224 181.475 29.1186 182.505 30.0605 183.907C31.0023 185.31 31.3189 186.749 31.0104 188.226C30.6893 189.711 29.8348 190.913 28.4468 191.831C27.0713 192.741 25.6395 193.07 24.1516 192.817C22.6512 192.573 21.4259 191.744 20.4757 190.329ZM22.6515 188.889C23.0599 189.497 23.5829 189.886 24.2206 190.056C24.85 190.213 25.4106 190.147 25.9024 189.858L23.0394 185.594C22.7643 185.776 22.5642 186.016 22.4391 186.314C21.9889 187.15 22.0597 188.008 22.6515 188.889Z" fill="#FF6C00"/>
<path d="M18.0039 169.686L22.269 170.706L23.6249 173.707L16.4785 172.106L13.2392 178.059L11.8834 175.058L13.698 171.529L9.86349 170.588L8.51688 167.607L15.2532 169.121L18.6904 162.785L20.0462 165.786L18.0039 169.686Z" fill="#FF6C00"/>
<path d="M12.3734 152.422L19.0489 153.4L19.6369 155.397L13.2205 155.3L12.3734 152.422Z" fill="#FF6C00"/>
<path d="M11.3537 123.832L8.41633 125.846C7.87158 126.22 7.50594 126.552 7.31939 126.842C7.13239 127.116 7.04669 127.506 7.0623 128.013L7.08641 128.796L11.5025 128.662L11.59 131.502L0.324419 131.844L0.236943 129.004L4.33761 128.879L4.31626 128.186C4.30065 127.679 4.19107 127.295 3.98754 127.032C3.784 126.77 3.39884 126.468 2.83205 126.127L0.097119 124.464L0 121.311L3.88491 123.7C4.78858 124.24 5.35314 124.752 5.57858 125.238C5.7282 124.726 6.27403 124.143 7.21607 123.487L11.2566 120.679L11.3537 123.832Z" fill="#FF6C00"/>
<path d="M3.97869 107.198L12.4079 108.271L12.0468 111.067L3.61755 109.994L3.17043 113.456L0.420306 113.106L1.67569 103.386L4.42581 103.736L3.97869 107.198Z" fill="#FF6C00"/>
<path d="M4.87901 89.1593C5.33195 87.628 6.2651 86.4853 7.67844 85.7313C9.07737 84.973 10.5411 84.8166 12.0695 85.2619C13.5979 85.7073 14.7441 86.6242 15.5081 88.0126C16.2721 89.4011 16.4276 90.861 15.9746 92.3923C15.5217 93.9236 14.5957 95.0683 13.1968 95.8266C11.8021 96.5705 10.3406 96.7198 8.81211 96.2744C7.26925 95.8249 6.11584 94.9059 5.35188 93.5174C4.58792 92.129 4.43029 90.6763 4.87901 89.1593ZM8.93273 88.2419C8.22394 88.6261 7.75948 89.1903 7.53936 89.9344C7.31924 90.6786 7.4006 91.4096 7.78343 92.1274C8.15609 92.8267 8.76778 93.3003 9.61852 93.5482C10.4693 93.796 11.2418 93.7258 11.9362 93.3374C12.6306 92.949 13.0899 92.3756 13.3143 91.6171C13.5344 90.8729 13.4581 90.1512 13.0855 89.4519C12.7171 88.7383 12.1075 88.2576 11.2567 88.0097C10.406 87.7618 9.63133 87.8392 8.93273 88.2419Z" fill="#FF6C00"/>
<path d="M25.6494 62.6147L27.1311 66.713L25.3475 69.4847L22.7742 62.6769L15.9822 63.256L17.7658 60.4843L21.7343 60.0532L20.4231 56.355L22.1946 53.6021L24.6164 60.0219L31.8389 59.3972L30.0553 62.1689L25.6494 62.6147Z" fill="#FF6C00"/>
<path d="M31.3596 42.1604C32.4376 40.9762 33.7781 40.3491 35.3812 40.279C36.973 40.199 38.36 40.6889 39.5419 41.7488C40.7239 42.8088 41.3552 44.1287 41.4359 45.7087C41.5165 47.2886 41.0179 48.6707 39.9399 49.8549C38.8619 51.039 37.5269 51.6712 35.935 51.7512C34.3532 51.8202 32.9713 51.3248 31.7894 50.2648C30.5963 49.1949 29.9594 47.87 29.8787 46.29C29.798 44.71 30.2917 43.3335 31.3596 42.1604ZM35.4125 43.0812C34.606 43.1218 33.9407 43.4298 33.4168 44.0053C32.893 44.5807 32.6464 45.2743 32.6772 46.0859C32.7069 46.8764 33.0507 47.5666 33.7086 48.1566C34.3665 48.7465 35.0931 49.0162 35.8885 48.9657C36.684 48.9151 37.3486 48.5965 37.8826 48.01C38.4065 47.4345 38.6536 46.7515 38.6239 45.961C38.6042 45.1594 38.2654 44.4636 37.6076 43.8737C36.9497 43.2837 36.218 43.0196 35.4125 43.0812Z" fill="#FF6C00"/>
<path d="M57.6791 33.8387L55.4272 35.5931L53.2003 32.7773C53.1061 33.8177 52.5507 34.7339 51.5341 35.5259C50.1983 36.5666 48.8945 36.9471 47.6227 36.6676C46.3627 36.3788 45.1991 35.5598 44.132 34.2106L42.1556 31.7116L44.4075 29.9572L46.2726 32.3154C46.9221 33.1367 47.5549 33.6107 48.171 33.7375C48.7871 33.8642 49.4557 33.6467 50.1768 33.085C51.5244 32.0351 51.6136 30.771 50.4444 29.2927L48.468 26.7937L50.7199 25.0393L57.6791 33.8387Z" fill="#FF6C00"/>
<path d="M63.7915 16.8593C65.8942 15.7328 67.8307 15.8394 69.601 17.1791C70.035 17.506 70.4329 17.9708 70.7948 18.5735C71.1496 19.1631 71.365 19.7003 71.4408 20.1851L64.5179 23.894C64.8677 24.5371 65.3739 24.9184 66.0366 25.038C66.7126 25.1504 67.401 25.0189 68.1019 24.6434C69.1995 24.0554 70.073 23.2908 70.7224 22.3497L72.8331 23.0749C72.0013 24.8425 70.8382 26.1266 69.3439 26.9272C67.8496 27.7278 66.376 27.9071 64.9231 27.4651C63.4631 27.01 62.3369 26.0539 61.5446 24.5971C60.7594 23.1533 60.5625 21.7079 60.9538 20.2609C61.3381 18.8008 62.284 17.6669 63.7915 16.8593ZM65.0336 19.143C64.3856 19.4902 63.9469 19.971 63.7175 20.5854C63.5014 21.1928 63.5157 21.7529 63.7605 22.2658L68.303 19.8322C68.146 19.5435 67.9239 19.3235 67.6367 19.1722C66.8402 18.6498 65.9725 18.64 65.0336 19.143Z" fill="#FF6C00"/>
<path d="M83.4009 11.5071L86.2101 19.4675L83.5296 20.3993L80.7203 12.439L77.4015 13.5927L76.4849 10.9955L85.8031 7.75618L86.7197 10.3533L83.4009 11.5071Z" fill="#FF6C00"/>
<path d="M109.053 3.00151L114.947 2.63603C117.527 2.47608 118.881 3.40836 119.008 5.43289C119.082 6.6089 118.621 7.40715 117.623 7.82766C119.008 8.05564 119.743 8.84696 119.828 10.2016C119.902 11.3776 119.61 12.2475 118.953 12.8113C118.296 13.3751 117.202 13.7044 115.673 13.7993L109.756 14.1662L109.053 3.00151ZM112.062 5.23591L112.187 7.22322L115.067 7.04467C115.846 6.98143 116.215 6.62231 116.173 5.96731C116.132 5.31232 115.707 5.00993 114.897 5.06015L112.062 5.23591ZM112.461 11.5774L115.588 11.3835C116.548 11.324 117.004 10.9072 116.955 10.1331C116.908 9.38883 116.419 9.03806 115.489 9.08083L112.316 9.27752L112.461 11.5774Z" fill="#FF6C00"/>
<path d="M146.847 13.5124L148.698 13.9081L148.081 16.7513L141.338 15.3099L141.955 12.4667L143.806 12.8623L145.894 3.23895L144.043 2.84328L144.66 0L151.403 1.44138L150.786 4.28466L148.935 3.88898L146.847 13.5124Z" fill="#FF6C00"/>
<path d="M167.606 9.65709L162.957 21.5458L160.057 20.4288L164.706 8.54009L160.671 6.98601L161.731 4.27456L172.701 8.49973L171.64 11.2112L167.606 9.65709Z" fill="#FF6C00"/>
<path d="M178.886 26.0925L173.444 30.052L171.612 29.041L176.246 24.6356L178.886 26.0925Z" fill="#FF6C00"/>
<path d="M201.853 47.6477L199.788 45.6793L202.786 42.5815L199.242 39.2027L196.244 42.3004L194.18 40.332L201.988 32.2649L204.052 34.2333L201.163 37.2181L204.707 40.597L207.596 37.6121L209.661 39.5805L201.853 47.6477Z" fill="#FF6C00"/>
<path d="M219.797 51.451C220.75 52.7359 221.102 54.1648 220.851 55.7378C220.612 57.3019 219.851 58.5529 218.569 59.4906C217.286 60.4284 215.857 60.7787 214.281 60.5415C212.705 60.3044 211.44 59.5434 210.486 58.2585C209.533 56.9736 209.175 55.5491 209.414 53.985C209.662 52.4328 210.427 51.1879 211.71 50.2502C213.004 49.3036 214.439 48.9489 216.015 49.186C217.591 49.4231 218.852 50.1781 219.797 51.451ZM218.078 55.2086C218.199 54.4161 218.028 53.7076 217.564 53.0832C217.101 52.4588 216.465 52.0805 215.658 51.9483C214.872 51.8193 214.121 52.0158 213.408 52.5378C212.694 53.0597 212.282 53.7125 212.173 54.4962C212.065 55.2798 212.246 55.9898 212.719 56.6263C213.182 57.2507 213.807 57.6274 214.593 57.7564C215.389 57.8974 216.143 57.707 216.857 57.185C217.571 56.6631 217.978 56.0043 218.078 55.2086Z" fill="#FF6C00"/>
<path d="M227.231 90.533L226.255 87.862L230.324 86.3973L228.648 81.8123L224.58 83.2769L223.603 80.6059L234.199 76.7917L235.175 79.4628L231.255 80.874L232.93 85.459L236.851 84.0478L237.827 86.7189L227.231 90.533Z" fill="#FF6C00"/>
<path d="M241.62 101.724C242.042 104.058 241.335 105.851 239.5 107.102C239.052 107.409 238.483 107.639 237.793 107.792C237.118 107.943 236.536 107.978 236.049 107.898L234.66 100.212C233.935 100.341 233.412 100.7 233.091 101.287C232.772 101.889 232.683 102.58 232.824 103.358C233.044 104.576 233.503 105.639 234.201 106.545L232.848 108.309C231.416 106.972 230.55 105.475 230.25 103.816C229.95 102.157 230.239 100.711 231.116 99.4795C232.007 98.245 233.274 97.4816 234.916 97.1895C236.543 96.8999 237.988 97.1656 239.251 97.9864C240.528 98.8046 241.318 100.051 241.62 101.724ZM239.047 102.182C238.917 101.463 238.594 100.899 238.077 100.491C237.563 100.097 237.023 99.9361 236.455 100.007L237.366 105.05C237.692 104.992 237.972 104.851 238.206 104.628C238.955 104.04 239.235 103.225 239.047 102.182Z" fill="#FF6C00"/>
<path d="M237.175 137.166C236.956 137.834 236.612 138.316 236.143 138.614C235.673 138.926 235.109 139.049 234.452 138.983C233.33 138.87 232.513 138.368 232 137.476C231.486 136.6 231.292 135.471 231.418 134.09L231.439 133.889C231.549 132.806 231.87 131.811 232.401 130.905C232.945 130.016 233.506 129.405 234.084 129.074L235.609 130.779C234.704 131.647 234.176 132.749 234.024 134.083L234.004 134.283C233.964 134.819 234.04 135.261 234.231 135.61C234.421 135.959 234.726 136.155 235.145 136.197C235.892 136.272 236.321 135.843 236.432 134.91L236.614 133.129L238.364 133.306L238.209 134.819C238.131 135.576 238.421 135.988 239.079 136.054C239.827 136.129 240.266 135.672 240.398 134.68L240.412 134.547C240.513 133.553 240.24 132.536 239.591 131.496L241.381 130.169C241.906 130.792 242.322 131.524 242.629 132.364C242.949 133.221 243.062 134.109 242.968 135.029L242.952 135.185C242.82 136.326 242.437 137.262 241.803 137.993C241.17 138.724 240.382 139.041 239.44 138.946C238.214 138.823 237.459 138.229 237.175 137.166Z" fill="#FF6C00"/>
<path d="M226.862 156.975L227.619 154.235L231.793 155.371L233.093 150.667L228.919 149.531L229.676 146.791L240.545 149.749L239.788 152.49L235.767 151.395L234.467 156.099L238.489 157.193L237.732 159.933L226.862 156.975Z" fill="#FF6C00"/>
<path d="M219.344 174.592L220.165 172.873L221.679 173.412C221.025 172.098 221.036 170.733 221.712 169.318C222.387 167.903 223.453 166.959 224.908 166.488C226.357 166.031 227.815 166.147 229.281 166.836C230.748 167.526 231.762 168.572 232.323 169.974C232.892 171.397 232.838 172.816 232.163 174.231C231.487 175.646 230.424 176.516 228.972 176.84L230.351 177.662L229.531 179.381L219.344 174.592ZM224.102 170.739C223.767 171.44 223.729 172.164 223.987 172.913C224.239 173.675 224.765 174.244 225.566 174.621C226.368 174.997 227.145 175.041 227.898 174.751C228.659 174.482 229.207 173.997 229.541 173.296C229.876 172.595 229.91 171.86 229.645 171.092C229.387 170.343 228.857 169.781 228.056 169.404C227.255 169.027 226.48 168.977 225.734 169.253C224.987 169.529 224.443 170.024 224.102 170.739Z" fill="#FF6C00"/>
<path d="M221.458 192.615C220.084 194.555 218.303 195.318 216.116 194.904C215.581 194.804 215.016 194.564 214.421 194.185C213.838 193.815 213.404 193.43 213.118 193.03L217.643 186.643C217.041 186.222 216.416 186.105 215.769 186.292C215.114 186.491 214.557 186.914 214.099 187.561C213.382 188.573 212.944 189.645 212.787 190.774L210.572 191.061C210.521 189.111 210.983 187.446 211.96 186.068C212.937 184.689 214.175 183.876 215.674 183.627C217.185 183.387 218.623 183.743 219.987 184.696C221.339 185.639 222.166 186.845 222.467 188.313C222.78 189.79 222.444 191.224 221.458 192.615ZM219.319 191.122C219.743 190.524 219.919 189.9 219.848 189.248C219.768 188.609 219.503 188.114 219.053 187.764L216.084 191.955C216.354 192.143 216.652 192.242 216.977 192.25C217.925 192.364 218.706 191.988 219.319 191.122Z" fill="#FF6C00"/>
<path d="M206.322 206.095L200.226 200.218L202.205 198.196L208.301 204.073L210.751 201.57L212.74 203.487L205.86 210.516L203.872 208.599L206.322 206.095Z" fill="#FF6C00"/>
<path d="M174.758 219.303L177.939 220.912C178.53 221.21 178.998 221.372 179.343 221.397C179.675 221.43 180.062 221.32 180.504 221.066L181.186 220.673L178.97 216.879L181.447 215.454L187.1 225.132L184.623 226.557L182.565 223.034L181.961 223.382C181.519 223.636 181.23 223.915 181.094 224.217C180.958 224.52 180.873 224.999 180.84 225.656L180.664 228.835L177.914 230.417L178.188 225.889C178.237 224.843 178.424 224.107 178.747 223.679C178.222 223.792 177.446 223.592 176.417 223.08L172.008 220.885L174.758 219.303Z" fill="#FF6C00"/>
<path d="M155.372 227.638L157.169 226.977L157.873 228.412C158.33 227.019 159.299 226.051 160.779 225.507C162.258 224.962 163.684 225.027 165.057 225.699C166.416 226.376 167.377 227.47 167.941 228.981C168.505 230.491 168.494 231.943 167.908 233.335C167.313 234.747 166.276 235.725 164.796 236.269C163.316 236.813 161.943 236.698 160.676 235.923L161.084 237.467L159.288 238.127L155.372 227.638ZM161.488 228.18C160.755 228.45 160.218 228.942 159.876 229.656C159.519 230.376 159.495 231.148 159.803 231.973C160.111 232.798 160.636 233.369 161.379 233.684C162.113 234.019 162.846 234.051 163.579 233.782C164.312 233.512 164.854 233.011 165.205 232.277C165.547 231.563 165.565 230.793 165.256 229.968C164.948 229.143 164.43 228.57 163.701 228.249C162.973 227.929 162.235 227.906 161.488 228.18Z" fill="#FF6C00"/>
<path d="M139.309 231.362L141.764 233.935C142.221 234.411 142.607 234.719 142.924 234.858C143.226 234.999 143.628 235.024 144.13 234.931L144.905 234.787L144.096 230.476L146.91 229.956L148.975 240.953L146.161 241.473L145.409 237.47L144.722 237.598C144.22 237.691 143.854 237.857 143.624 238.097C143.394 238.337 143.152 238.76 142.9 239.369L141.663 242.306L138.538 242.884L140.322 238.708C140.721 237.739 141.145 237.106 141.594 236.811C141.061 236.743 140.397 236.297 139.6 235.473L136.185 231.94L139.309 231.362Z" fill="#FF6C00"/>
</svg>
