<svg width="179" height="179" viewBox="0 0 179 179" fill="none" xmlns="http://www.w3.org/2000/svg">
<path d="M71.832 166.431L74.0924 166.794L72.5523 175.873L76.8764 176.567L78.4165 167.487L80.6768 167.85L78.7855 179L69.9408 177.581L71.832 166.431Z" fill="#FF6C00"/>
<path d="M59.2325 171.3C58.1171 170.913 57.3096 170.199 56.8101 169.157C56.3068 168.126 56.2521 167.073 56.6459 165.998C57.0397 164.924 57.7669 164.142 58.8273 163.652C59.8878 163.163 60.9758 163.112 62.0913 163.498C63.2067 163.885 64.0161 164.594 64.5193 165.625C65.0121 166.653 65.0616 167.704 64.6678 168.779C64.2703 169.863 63.5413 170.65 62.4808 171.14C61.4203 171.629 60.3376 171.682 59.2325 171.3ZM58.7224 168.363C58.9773 168.886 59.3759 169.241 59.918 169.429C60.46 169.617 61.005 169.589 61.5527 169.344C62.0863 169.106 62.4627 168.689 62.6819 168.09C62.9011 167.492 62.8813 166.937 62.6227 166.425C62.364 165.912 61.9584 165.56 61.4058 165.369C60.8638 165.181 60.3259 165.206 59.7923 165.444C59.2483 165.678 58.8667 166.094 58.6475 166.692C58.4283 167.29 58.4532 167.847 58.7224 168.363Z" fill="#FF6C00"/>
<path d="M43.923 154.828L44.0181 157.383C44.0364 157.858 44.099 158.207 44.2059 158.432C44.3033 158.652 44.5136 158.855 44.8367 159.043L45.2502 159.282L46.917 156.565L48.7276 157.615L47.0608 160.333L47.4885 160.581C47.8117 160.768 48.1004 160.854 48.3547 160.839C48.5995 160.818 48.9408 160.703 49.3787 160.493L51.7358 159.36L53.7461 160.526L50.479 162.071C49.717 162.431 49.1432 162.568 48.7577 162.482C48.992 162.794 49.1224 163.327 49.1491 164.082L49.3087 167.351L47.2985 166.185L47.1984 163.89C47.1801 163.416 47.1222 163.069 47.0248 162.85C46.9274 162.63 46.7172 162.427 46.394 162.239L46.0233 162.024L44.4756 164.548L42.665 163.497L44.2127 160.974L43.8563 160.767C43.5236 160.574 43.2349 160.488 42.9901 160.509C42.7453 160.53 42.404 160.645 41.9661 160.855L39.8564 161.868L37.8461 160.702L40.8658 159.277C41.5918 158.934 42.1409 158.795 42.5131 158.86C42.2562 158.586 42.1076 158.03 42.0674 157.192L41.9128 153.662L43.923 154.828Z" fill="#FF6C00"/>
<path d="M31.9162 145.201L32.9606 146.124L32.2541 147.049C33.3268 146.877 34.2932 147.171 35.1533 147.931C36.0134 148.69 36.4548 149.618 36.4775 150.714C36.492 151.803 36.0974 152.778 35.2937 153.638C34.49 154.499 33.5302 154.974 32.4143 155.064C31.2828 155.155 30.287 154.82 29.4269 154.06C28.5668 153.301 28.1771 152.389 28.2579 151.326L27.3793 152.099L26.3349 151.176L31.9162 145.201ZM33.6328 149.27C33.2069 148.894 32.7006 148.715 32.114 148.735C31.5191 148.748 31.0022 148.989 30.5631 149.459C30.1241 149.929 29.9266 150.452 29.9707 151.029C29.9992 151.607 30.2265 152.084 30.6524 152.46C31.0784 152.837 31.5925 153.015 32.1947 152.994C32.7813 152.975 33.2942 152.73 33.7332 152.26C34.1723 151.79 34.3739 151.27 34.3379 150.7C34.302 150.13 34.067 149.654 33.6328 149.27Z" fill="#FF6C00"/>
<path d="M21.228 140.965L26.7233 139.599L28.1023 141.317L19.1997 143.344L18.3621 142.301L22.5455 134.394L23.9143 136.1L21.228 140.965Z" fill="#FF6C00"/>
<path d="M8.52566 126.942L14.9042 123.616C15.9965 123.046 17.0667 122.903 18.1149 123.187C19.1728 123.466 19.9998 124.146 20.5961 125.227C21.2656 126.441 21.4658 127.692 21.1967 128.981L19.5054 128.544C19.4771 127.581 19.275 126.771 18.8991 126.112C18.6062 125.581 18.232 125.233 17.7766 125.067C17.3309 124.896 16.8496 124.946 16.3327 125.216L15.8645 125.46C16.6805 125.596 17.3265 126.096 17.8025 126.959C18.3569 127.964 18.4614 128.905 18.1158 129.781C17.765 130.648 17.0434 131.366 15.9511 131.936L12.3229 133.828L11.3265 132.021L14.8523 130.183C16.1007 129.532 16.432 128.675 15.8462 127.613C15.5533 127.081 15.1599 126.755 14.6662 126.634C14.1627 126.518 13.5696 126.638 12.8869 126.994L9.52205 128.749L8.52566 126.942Z" fill="#FF6C00"/>
<path d="M2.36019 115.276C2.96779 115.591 3.38562 116.087 3.61369 116.761C3.84177 117.436 3.80924 118.081 3.51611 118.696C3.20901 119.304 2.71377 119.717 2.03038 119.935L1.57423 118.586C1.8581 118.495 2.06536 118.316 2.19601 118.047C2.31614 117.782 2.3261 117.501 2.22588 117.205C2.12567 116.908 1.94638 116.688 1.68802 116.544C1.4157 116.393 1.1376 116.363 0.853726 116.454L0.402764 115.12C1.08615 114.901 1.73863 114.953 2.36019 115.276ZM10.9797 110.481L11.638 112.429L6.98571 113.916L12.965 116.355L13.39 117.613L5.50476 120.133L4.84646 118.186L9.49877 116.699L3.51949 114.259L3.09444 113.002L10.9797 110.481Z" fill="#FF6C00"/>
<path d="M3.15125 82.0279L8.13295 84.665L7.94067 86.8364L0 82.4283L0.116789 81.1094L8.71547 78.0864L8.52462 80.2418L3.15125 82.0279Z" fill="#FF6C00"/>
<path d="M3.65995 63.3463L10.6611 65.1316C11.8601 65.4374 12.7442 66.0411 13.3134 66.9428C13.8933 67.8473 14.0232 68.893 13.7032 70.0798C13.3439 71.4124 12.6149 72.4615 11.516 73.2272L10.5827 71.7875C11.2355 71.0639 11.6547 70.3363 11.8405 69.6048C11.9977 69.0218 11.9674 68.519 11.7496 68.0962C11.5425 67.6762 11.1552 67.3939 10.5879 67.2492L10.074 67.1182C10.5765 67.7582 10.7 68.5518 10.4446 69.4992C10.147 70.6027 9.565 71.3611 8.69846 71.7744C7.83473 72.1772 6.80338 72.2258 5.6044 71.92L1.62208 70.9045L2.15681 68.9213L6.02673 69.9081C7.39699 70.2575 8.23931 69.8492 8.55369 68.6832C8.71088 68.1002 8.651 67.601 8.37404 67.1854C8.08637 66.7671 7.56786 66.4624 6.8185 66.2714L3.12522 65.3296L3.65995 63.3463Z" fill="#FF6C00"/>
<path d="M17.0699 52.7212L16.1889 54.5839L13.7759 53.5044C14.0666 54.2031 14.0132 54.9729 13.6154 55.8138C13.0928 56.9187 12.3675 57.5894 11.4395 57.8258C10.5161 58.0525 9.47628 57.9072 8.32003 57.39L6.17846 56.432L7.0595 54.5693L9.08042 55.4733C9.78422 55.7882 10.3594 55.8856 10.806 55.7655C11.2527 55.6454 11.617 55.2871 11.8991 54.6907C12.4264 53.576 12.0566 52.7353 10.7897 52.1686L8.64814 51.2106L9.52918 49.3479L17.0699 52.7212Z" fill="#FF6C00"/>
<path d="M27.3288 37.645L20.0251 47.3709L13.322 42.6102L14.5654 40.9544L19.6195 44.544L21.4112 42.1581L16.3571 38.5686L17.5907 36.9259L22.6448 40.5154L24.4365 38.1296L19.3824 34.54L20.6258 32.8843L27.3288 37.645Z" fill="#FF6C00"/>
<path d="M28.4718 25.0326C29.7659 23.873 31.1674 23.6051 32.6762 24.2287C33.0458 24.3805 33.4149 24.6351 33.7837 24.9925C34.1449 25.342 34.397 25.6796 34.54 26.0052L30.2793 29.8231C30.6468 30.2109 31.0779 30.388 31.5728 30.3544C32.0758 30.3134 32.5429 30.0997 32.9743 29.7132C33.6498 29.1079 34.133 28.4187 34.424 27.6458L36.0631 27.7795C35.7935 29.1626 35.1988 30.2663 34.2792 31.0904C33.3595 31.9145 32.3407 32.3005 31.2229 32.2485C30.0976 32.1885 29.1188 31.7192 28.2863 30.8406C27.4614 29.97 27.056 28.9942 27.0702 27.9131C27.0768 26.8242 27.544 25.864 28.4718 25.0326ZM29.7767 26.4098C29.3779 26.7672 29.153 27.181 29.1019 27.6512C29.0589 28.1141 29.1718 28.5032 29.4405 28.8186L32.2361 26.3134C32.0711 26.1393 31.8723 26.0248 31.6397 25.9698C30.9755 25.7454 30.3546 25.892 29.7767 26.4098Z" fill="#FF6C00"/>
<path d="M40.2261 16.1178C41.6998 15.1826 43.1275 15.144 44.5093 16.0021C44.848 16.2113 45.1687 16.5218 45.4714 16.9337C45.7682 17.3366 45.9593 17.7101 46.0448 18.0542L41.1929 21.1332C41.4892 21.5748 41.8843 21.8189 42.378 21.8654C42.881 21.9061 43.3781 21.7705 43.8693 21.4588C44.6386 20.9706 45.2325 20.3689 45.6511 19.6534L47.2448 20.0493C46.7434 21.3699 45.969 22.3625 44.9216 23.0272C43.8743 23.6918 42.8039 23.9084 41.7104 23.677C40.6109 23.4366 39.7254 22.8162 39.0541 21.8157C38.3888 20.8242 38.1552 19.7966 38.3532 18.7328C38.5452 17.6599 39.1695 16.7883 40.2261 16.1178ZM41.2784 17.6861C40.8243 17.9743 40.532 18.3461 40.4015 18.8016C40.2803 19.2512 40.3253 19.6532 40.5366 20.0074L43.7203 17.9871C43.5873 17.7888 43.4107 17.6438 43.1906 17.5522C42.5739 17.2239 41.9365 17.2685 41.2784 17.6861Z" fill="#FF6C00"/>
<path d="M73.3141 3.30781C74.6199 3.07276 75.7845 3.36664 76.8077 4.18945L75.8149 5.71445C75.1136 5.28245 74.4039 5.13109 73.6857 5.26036C73.1089 5.36417 72.651 5.64908 72.312 6.11508C71.973 6.58108 71.863 7.12628 71.9818 7.75067C72.1006 8.37507 72.4041 8.84583 72.8921 9.16297C73.3802 9.48011 73.9126 9.58677 74.4893 9.48296C75.2075 9.35368 75.8146 8.96531 76.3104 8.31785L77.7987 9.39626C77.146 10.5207 76.1668 11.2005 74.8609 11.4355C73.6965 11.6451 72.6307 11.4265 71.6635 10.7797C70.7071 10.1309 70.1222 9.2456 69.9087 8.12381C69.6952 7.00202 69.9156 5.97179 70.5698 5.03312C71.2349 4.0925 72.1497 3.51739 73.3141 3.30781Z" fill="#FF6C00"/>
<path d="M87.4299 1.91135C88.6138 1.8874 89.6295 2.27593 90.4768 3.07693C91.3239 3.86717 91.7597 4.83259 91.7841 5.97319C91.8084 7.11379 91.4143 8.09599 90.6018 8.9198C89.7892 9.74362 88.7909 10.1675 87.607 10.1914C86.4231 10.2154 85.4076 9.83225 84.5605 9.04201C83.7244 8.25154 83.2942 7.28601 83.2698 6.14541C83.2452 4.99405 83.6392 4.00647 84.4517 3.18265C85.2643 2.35884 86.2571 1.93507 87.4299 1.91135ZM88.9792 4.47976C88.55 4.07937 88.0477 3.885 87.4724 3.89664C86.897 3.90827 86.3979 4.1229 85.9752 4.54053C85.5632 4.94716 85.364 5.46791 85.3776 6.10278C85.3912 6.73764 85.6125 7.24988 86.0414 7.63951C86.4704 8.02914 86.9781 8.21802 87.5645 8.20616C88.1399 8.19452 88.6336 7.98538 89.0455 7.57874C89.4685 7.17188 89.6732 6.65102 89.6596 6.01616C89.6461 5.3813 89.4193 4.86916 88.9792 4.47976Z" fill="#FF6C00"/>
<path d="M104.677 0L106.763 0.297424C106.642 1.09609 106.317 1.65886 105.787 1.98573C105.267 2.31416 104.449 2.39875 103.332 2.2395L102.807 2.16456C102.029 2.05371 101.39 2.14198 100.888 2.42938C100.387 2.70613 100.089 3.16397 99.9928 3.8029L99.9399 4.15431C100.228 3.80374 100.614 3.54333 101.098 3.37307C101.593 3.20436 102.109 3.15827 102.646 3.23477C103.795 3.3987 104.668 3.88204 105.262 4.68479C105.857 5.48753 106.073 6.432 105.909 7.51818C105.732 8.68955 105.196 9.61382 104.3 10.291C103.404 10.9681 102.326 11.217 101.067 11.0374C99.862 10.8657 98.9195 10.3288 98.239 9.42681C97.5584 8.52483 97.3153 7.42958 97.5095 6.14107L97.7985 4.22428C98.0104 2.81863 98.5848 1.791 99.5216 1.14137C100.471 0.482666 101.707 0.261821 103.229 0.478839C103.754 0.553781 104.117 0.556603 104.318 0.487305C104.519 0.418007 104.638 0.255572 104.677 0ZM101.97 5.04743C101.4 4.96625 100.873 5.08689 100.388 5.40936C99.9143 5.73339 99.634 6.18292 99.5473 6.75796C99.459 7.34364 99.594 7.85783 99.9523 8.30052C100.312 8.73256 100.782 8.98995 101.363 9.0727C101.943 9.15544 102.469 9.04013 102.942 8.72675C103.416 8.40272 103.697 7.94786 103.785 7.36217C103.872 6.78714 103.73 6.27749 103.361 5.83324C102.992 5.389 102.528 5.12706 101.97 5.04743Z" fill="#FF6C00"/>
<path d="M114.589 7.90153L116.409 8.51324C117.057 8.7312 117.581 9.00399 117.98 9.3316C118.379 9.65922 118.637 10.0023 118.756 10.361C118.874 10.7197 118.93 11.0572 118.923 11.3737C118.916 11.6901 118.854 12.0111 118.739 12.3366C118.623 12.6622 118.467 12.9515 118.272 13.2047C118.077 13.4579 117.819 13.69 117.498 13.901C117.177 14.112 116.755 14.2266 116.234 14.2448C115.712 14.2631 115.127 14.1632 114.478 13.9453L110.666 12.6638L113.377 5.03459L115.37 5.70431L114.589 7.90153ZM120.519 15.9755L118.526 15.3058L121.238 7.67653L123.23 8.34625L120.519 15.9755ZM113.304 11.5178L115.343 12.2033C116.065 12.4459 116.533 12.2671 116.746 11.6669C116.959 11.0668 116.705 10.6454 115.983 10.4028L113.944 9.71729L113.304 11.5178Z" fill="#FF6C00"/>
<path d="M132.816 15.24L129.752 20.547L127.929 19.5511L130.993 14.2441L128.734 13.0111L129.734 11.2797L136.074 14.7415L135.075 16.473L132.816 15.24Z" fill="#FF6C00"/>
<path d="M142.848 29.5354L141.2 28.256L144.256 24.5344L137.88 25.6772L136.816 24.8512L141.995 18.5434L143.642 19.8227L140.587 23.5443L146.963 22.4015L148.027 23.2275L142.848 29.5354Z" fill="#FF6C00"/>
<path d="M156.312 31.1162C157.48 32.3955 157.73 33.763 157.062 35.2189C156.899 35.5755 156.631 35.9298 156.257 36.2819C155.891 36.6268 155.539 36.8659 155.202 36.999L151.354 32.7871C150.948 33.1374 150.758 33.5534 150.784 34.0352C150.817 34.525 151.028 34.9831 151.418 35.4095C152.028 36.0773 152.728 36.5596 153.517 36.8565L153.35 38.4479C151.933 38.1607 150.809 37.5626 149.978 36.6534C149.148 35.7443 148.769 34.7467 148.843 33.6608C148.925 32.5677 149.425 31.6244 150.344 30.8309C151.254 30.0445 152.264 29.668 153.375 29.7013C154.495 29.7274 155.474 30.1991 156.312 31.1162ZM154.872 32.3601C154.512 31.9659 154.09 31.7397 153.608 31.6815C153.133 31.6314 152.731 31.7341 152.402 31.9896L154.927 34.7533C155.109 34.596 155.23 34.4047 155.291 34.1795C155.534 33.5378 155.394 32.9314 154.872 32.3601Z" fill="#FF6C00"/>
<path d="M172.936 57.6502L174.334 61.6556C174.946 63.4086 174.539 64.5202 173.114 64.9906C172.286 65.2638 171.625 65.0954 171.132 64.4854C171.235 65.4855 170.81 66.1429 169.856 66.4576C169.029 66.7308 168.349 66.6935 167.819 66.3458C167.289 65.998 166.842 65.3043 166.479 64.2647L165.076 60.244L172.936 57.6502ZM171.916 60.152L170.517 60.6137L171.2 62.5705C171.395 63.0971 171.723 63.2842 172.185 63.1321C172.646 62.9799 172.78 62.6286 172.588 62.0783L171.916 60.152ZM167.452 61.6253L168.193 63.7503C168.421 64.4026 168.807 64.6388 169.352 64.459C169.876 64.286 170.033 63.8819 169.823 63.2466L169.071 61.091L167.452 61.6253Z" fill="#FF6C00"/>
<path d="M177.846 75.0712C178.128 76.7604 177.585 78.0453 176.218 78.926C175.884 79.1422 175.462 79.3014 174.953 79.4036C174.454 79.5041 174.025 79.5226 173.667 79.4592L172.739 73.8976C172.204 73.982 171.815 74.2342 171.571 74.6543C171.329 75.085 171.255 75.5819 171.348 76.145C171.495 77.0267 171.82 77.7987 172.323 78.4608L171.305 79.7172C170.267 78.7361 169.648 77.6452 169.448 76.4447C169.247 75.2442 169.478 74.2048 170.138 73.3265C170.81 72.4464 171.752 71.9108 172.965 71.7195C174.167 71.53 175.227 71.7389 176.147 72.3462C177.078 72.9517 177.644 73.8601 177.846 75.0712ZM175.945 75.371C175.858 74.8504 175.627 74.4398 175.252 74.1392C174.878 73.8492 174.482 73.7263 174.064 73.7705L174.672 77.4198C174.913 77.3819 175.12 77.2837 175.296 77.1252C175.854 76.71 176.071 76.1253 175.945 75.371Z" fill="#FF6C00"/>
<path d="M179 89.5607C178.998 90.8523 178.487 91.9117 177.468 92.739L176.109 91.5101C176.674 90.9189 176.957 90.2682 176.958 89.5579C176.959 88.9874 176.755 88.4975 176.346 88.0879C175.937 87.6783 175.406 87.4731 174.753 87.4722C174.1 87.4713 173.569 87.675 173.159 88.0834C172.749 88.4918 172.543 88.9812 172.542 89.5517C172.541 90.262 172.823 90.9135 173.386 91.5063L172.023 92.7313C171.006 91.9011 170.499 90.8403 170.501 89.5488C170.502 88.3972 170.919 87.4184 171.75 86.6123C172.581 85.8171 173.583 85.4202 174.756 85.4219C175.93 85.4235 176.93 85.8232 177.759 86.6208C178.588 87.4291 179.002 88.4091 179 89.5607Z" fill="#FF6C00"/>
<path d="M168.839 105.886L169.191 103.864L172.333 104.382L172.938 100.912L169.795 100.395L170.148 98.373L178.331 99.7213L177.979 101.743L174.951 101.244L174.347 104.714L177.375 105.213L177.022 107.234L168.839 105.886Z" fill="#FF6C00"/>
<path d="M172.142 115.832L171.465 117.585C171.224 118.21 170.93 118.712 170.582 119.091C170.235 119.47 169.875 119.712 169.504 119.818C169.132 119.924 168.783 119.969 168.458 119.954C168.133 119.939 167.805 119.87 167.473 119.749C167.142 119.628 166.848 119.469 166.593 119.273C166.338 119.076 166.106 118.819 165.898 118.502C165.69 118.184 165.583 117.772 165.578 117.264C165.573 116.756 165.691 116.19 165.932 115.565L167.35 111.893L175.121 114.73L174.38 116.649L172.142 115.832ZM163.686 121.384L164.427 119.465L172.198 122.302L171.457 124.221L163.686 121.384ZM168.458 114.487L167.7 116.452C167.432 117.147 167.603 117.607 168.214 117.83C168.826 118.053 169.265 117.817 169.534 117.122L170.292 115.157L168.458 114.487Z" fill="#FF6C00"/>
<path d="M143.984 147.761L150.193 141.698L151.169 142.644L150.629 148.684C150.56 149.346 150.554 149.879 150.609 150.282C150.657 150.693 150.822 151.035 151.104 151.308C151.481 151.673 151.904 151.832 152.373 151.785C152.842 151.754 153.276 151.552 153.675 151.178L153.745 151.109C154.3 150.568 154.619 149.669 154.702 148.413L156.721 148.318C156.733 150.213 156.207 151.679 155.145 152.716L155.051 152.808C154.161 153.662 153.235 154.094 152.272 154.103C151.317 154.12 150.511 153.81 149.852 153.172C149.288 152.625 148.934 151.94 148.791 151.119C148.657 150.305 148.67 149.247 148.832 147.945L148.98 145.856L145.513 149.242L143.984 147.761Z" fill="#FF6C00"/>
<path d="M143.974 160.093C143.671 161.633 142.855 162.841 141.527 163.717C140.199 164.593 138.748 164.881 137.174 164.58C135.597 164.293 134.358 163.505 133.457 162.213C132.556 160.922 132.253 159.509 132.547 157.975C132.848 156.451 133.666 155.247 135.004 154.365C136.341 153.483 137.793 153.188 139.361 153.48C140.935 153.781 142.173 154.577 143.074 155.869C143.975 157.16 144.275 158.569 143.974 160.093ZM137.663 162.52C138.607 162.704 139.491 162.524 140.316 161.98C141.14 161.436 141.639 160.704 141.812 159.783C141.977 158.869 141.761 157.984 141.164 157.129C140.561 156.265 139.796 155.742 138.867 155.562C137.93 155.387 137.049 155.571 136.224 156.115C135.391 156.665 134.889 157.393 134.719 158.299C134.539 159.211 134.75 160.098 135.353 160.962C135.949 161.817 136.72 162.337 137.663 162.52Z" fill="#FF6C00"/>
<path d="M117.516 163.369L125.604 160L126.146 161.232L123.327 166.639C123.008 167.228 122.798 167.72 122.694 168.114C122.581 168.513 122.603 168.89 122.76 169.246C122.969 169.721 123.3 170.022 123.753 170.149C124.201 170.291 124.681 170.26 125.194 170.058L125.286 170.02C126.008 169.719 126.649 169.002 127.209 167.867L129.118 168.512C128.401 170.274 127.351 171.443 125.968 172.019L125.846 172.07C124.692 172.539 123.667 172.603 122.77 172.263C121.878 171.932 121.249 171.351 120.883 170.52C120.569 169.807 120.504 169.044 120.687 168.23C120.874 167.426 121.293 166.45 121.943 165.301L122.883 163.417L118.366 165.298L117.516 163.369Z" fill="#FF6C00"/>
<path d="M107.68 166.147L109.899 165.594L111.721 172.506L112.524 170.873L114.235 171.579L111.821 176.531L110.503 176.859L107.68 166.147Z" fill="#FF6C00"/>
</svg>
