<svg width="76" height="18" viewBox="0 0 76 18" fill="none" xmlns="http://www.w3.org/2000/svg">
<path d="M72.9405 5.18966C73.7594 5.18966 74.3775 5.34248 74.8102 5.63296C75.2428 5.92359 75.552 6.3822 75.7374 7.00925C75.9228 7.63614 76 8.49227 76 9.59324V11.3823H72.0287V11.9327L72.0906 13.4465C72.1369 13.7829 72.2143 14.0276 72.3378 14.1804C72.4616 14.3334 72.6623 14.4098 72.925 14.4098C73.2805 14.4098 73.5278 14.2723 73.6512 13.9971C73.7904 13.7218 73.8521 13.263 73.8676 12.6361L75.9228 12.7585C75.9383 12.8502 75.9383 12.9726 75.9383 13.1254C75.9383 14.0887 75.6755 14.8075 75.1347 15.2814C74.5938 15.7553 73.8521 16 72.8786 16C71.7042 16 70.8853 15.6331 70.4217 14.9145C69.9582 14.1957 69.7109 13.0641 69.7109 11.5505V9.70027C69.7634 7.10097 70.2254 5.19724 72.9405 5.18966ZM44.3688 5.38842V13.049C44.3688 13.5077 44.4151 13.8441 44.5232 14.0429C44.7427 14.468 45.3114 14.3593 45.6204 14.1499C45.7988 14.0306 45.9426 13.8672 46.0376 13.676V5.38827H48.4018V15.8317H46.5475L46.3466 14.5473H46.3003C45.7904 15.5106 45.0331 15.9999 44.0288 15.9999C42.4829 15.9961 42.1046 14.8939 42.0146 13.7746L42.0087 13.6957C41.9976 13.5262 41.991 13.3564 41.9891 13.1865V5.38842H44.3686H44.3688ZM56.5608 5.38842V13.049C56.5608 13.5077 56.6071 13.8441 56.7153 14.0429C56.9349 14.468 57.5034 14.3593 57.8124 14.1499C57.9908 14.0306 58.1347 13.8672 58.2296 13.676V5.38827H60.5939V15.8317H58.7395L58.5387 14.5473H58.4924C57.9825 15.5106 57.2252 15.9999 56.2209 15.9999C54.675 15.9961 54.2967 14.8939 54.2066 13.7746L54.2007 13.6957C54.1896 13.5262 54.1831 13.3564 54.1811 13.1865V5.38842H56.5608ZM37.5078 5.18966C38.2804 5.18966 38.914 5.34248 39.3776 5.66359C39.8411 5.98469 40.1965 6.47407 40.4128 7.14676C40.6292 7.81959 40.7373 8.72165 40.7373 9.83793V11.3516C40.7373 12.4679 40.6292 13.3548 40.4128 14.0274C40.1965 14.7004 39.8565 15.1897 39.3776 15.5108C38.8986 15.8166 38.2495 15.9847 37.446 15.9847C36.6115 16 35.9625 15.8319 35.4835 15.5261C35.0046 15.205 34.6645 14.7156 34.4637 14.0429C34.2627 13.3701 34.17 12.4832 34.17 11.367V9.8531C34.17 8.73682 34.2782 7.81944 34.51 7.14661C34.7418 6.45862 35.0971 5.96923 35.5917 5.66359C36.0861 5.35765 36.7197 5.18951 37.5078 5.18951V5.18966ZM64.3025 1V6.50455H64.318C64.5343 6.10703 64.8124 5.78593 65.1988 5.54124C65.5596 5.30117 65.9847 5.1734 66.4195 5.17435C66.9912 5.17435 67.4239 5.32717 67.7484 5.61765C68.0729 5.92359 68.3047 6.39752 68.4437 7.05503C68.5786 7.69199 68.6552 8.57291 68.6599 9.6838L68.66 9.79214V11.4434C68.66 12.9877 68.4592 14.1346 68.0883 14.8686C67.7022 15.6025 67.1149 15.9695 66.3113 15.9695C65.8633 15.9695 65.4614 15.8625 65.0906 15.6637C64.7627 15.4746 64.4908 15.2034 64.3022 14.8774L64.2716 14.8226H64.2253L63.978 15.8166H62.0155V1.00015H64.3025V1ZM54.8455 1.53517V3.43103H52.4967V15.8317H50.1789V3.43117H47.8147V1.53532H54.8456L54.8455 1.53517ZM29.3642 1.53517L29.3657 1.54101C29.3882 1.64031 29.7007 3.0147 30.0443 4.61599L30.0714 4.74285L30.1124 4.93461L30.1398 5.06337L30.1535 5.12797L30.1809 5.25747L30.1946 5.32236L30.2219 5.45229L30.2617 5.6423C30.4938 6.75114 30.7153 7.86319 30.8478 8.66055H30.9097C31.0366 7.94529 31.2209 7.02995 31.4175 6.09537L31.4691 5.85126C31.495 5.72906 31.521 5.60686 31.5472 5.48495L31.5876 5.29582C31.8545 4.05731 32.1295 2.82051 32.4124 1.58548L32.4168 1.5658L32.4239 1.53517H34.7881L32.053 11.1836V15.8166H29.7197V11.1988H29.7042L27 1.53503H29.3642V1.53517ZM37.4614 6.81034C37.1369 6.81034 36.9205 6.97862 36.7816 7.33035C36.6424 7.68193 36.5807 8.2171 36.5807 8.96649V12.2233C36.5807 12.9879 36.6424 13.5535 36.7661 13.8901C36.8897 14.2263 37.1215 14.3946 37.4614 14.3946C37.7859 14.3946 38.0177 14.2263 38.1568 13.8901C38.2959 13.5535 38.3576 12.9879 38.3576 12.2233V8.96634C38.3576 8.2171 38.2958 7.66662 38.1568 7.3302C38.0177 6.97862 37.7859 6.81034 37.4614 6.81034ZM64.7197 7.11628C64.5314 7.28835 64.3974 7.50052 64.3177 7.76578L64.3025 7.81959V13.7523C64.4941 14.0734 64.7661 14.2874 65.2451 14.3028C65.4924 14.3028 65.6931 14.211 65.8478 14.0276C66.0023 13.8441 66.1104 13.5382 66.1722 13.1101C66.2316 12.6991 66.2625 12.133 66.2649 11.4121V9.96028C66.2649 9.13462 66.2339 8.50773 66.1877 8.06428C66.1258 7.62083 66.0487 7.29973 65.9096 7.11628C65.6406 6.73393 65.0597 6.7386 64.7197 7.11628ZM72.8942 6.76455C72.6315 6.77986 72.4459 6.85628 72.3378 6.99393C72.2143 7.14676 72.1369 7.37614 72.0906 7.71255C72.0451 8.04211 72.0295 9.19412 72.0287 9.2402V9.9909H73.7594V9.32886V9.34155C73.7584 9.57297 73.7535 9.20724 73.7429 8.75825L73.7414 8.69788C73.7317 8.30328 73.7176 7.86333 73.6977 7.71255C73.6512 7.36083 73.5739 7.11613 73.4504 6.97862C73.3267 6.84096 73.1414 6.76455 72.8941 6.76455H72.8942Z" fill="#FF6C00"/>
<path d="M23.4996 3.50701C23.3637 3.02225 23.099 2.58336 22.7336 2.23702C22.3579 1.88002 21.8974 1.62465 21.3956 1.49501C19.5176 1.00001 11.9936 1.00002 11.9936 1.00002C8.85697 0.964328 5.72107 1.12129 2.60364 1.47001C2.10183 1.60923 1.6422 1.8703 1.26564 2.23002C0.895641 2.58601 0.627641 3.02502 0.487641 3.50602C0.151334 5.31776 -0.0120674 7.15736 -0.000359379 9.00002C-0.0123594 10.841 0.150641 12.68 0.487641 14.494C0.624641 14.973 0.891641 15.41 1.26264 15.763C1.63364 16.116 2.09564 16.371 2.60364 16.506C4.50664 17 11.9936 17 11.9936 17C15.1343 17.0358 18.2742 16.8788 21.3956 16.53C21.8974 16.4004 22.3579 16.145 22.7336 15.788C23.1036 15.435 23.3666 14.996 23.4986 14.518C23.8437 12.707 24.0115 10.8666 23.9996 9.02302C24.0256 7.17162 23.858 5.32358 23.4996 3.50701ZM9.60164 12.424V5.57701L15.8616 9.00102L12.7316 10.7125L9.60164 12.424Z" fill="#FF6C00"/>
</svg>
