<svg width="204" height="218" viewBox="0 0 204 218" fill="none" xmlns="http://www.w3.org/2000/svg">
<g clip-path="url(#clip0)" filter="url(#filter0_d)">
<path d="M128.2 29.1997C127.9 28.7997 127.6 28.4997 127.4 28.1997C126.8 27.4997 126.1 26.8997 125.4 26.2997C123.9 25.1997 122.1 24.3997 120.3 23.8997C118.6 23.3997 116.8 23.1997 115.1 23.2997C114.9 23.2997 114.6 23.2997 114.4 23.3997C111.6 23.6997 109.1 24.9997 107.4 26.8997C106.5 26.8997 105.6 26.9997 104.7 27.0997C97.5003 27.8997 91.5003 30.7997 86.8003 34.1997C80.4003 28.6997 73.2003 23.4997 64.3003 21.0997C60.7003 20.0997 57.1003 19.7997 53.8003 20.1997C49.8003 20.6997 46.3003 22.0997 43.5003 24.4997C40.2003 27.2997 37.9003 31.2997 36.8003 36.1997C35.3003 42.5997 35.9003 49.4997 38.5003 56.0997C39.1003 57.4997 39.7003 58.9997 40.5003 60.2997C40.9003 61.0997 41.4003 61.7997 41.8003 62.5997C43.9003 65.8997 46.5003 69.0997 49.7003 71.9997C42.8003 82.6997 38.7003 95.0998 38.0003 106.8C37.3003 108.1 36.5003 109.4 35.8003 110.8L35.4003 111.5C30.1003 121.5 28.7003 133.4 31.4003 144.1C32.1003 146.8 33.3003 150.2 36.3003 152.8C39.2003 155.3 43.0003 156.4 47.1003 156C48.8003 155.8 50.5003 155.3 52.1003 154.6C54.3003 153.6 56.1003 152.2 57.6003 150.8C61.2003 153.3 65.3003 155.5 69.7003 157.1C69.4003 157.9 69.2003 158.8 69.1003 159.8C69.0003 160.8 69.1003 161.8 69.3003 162.8C68.1003 164.9 67.7003 167.3 68.3003 169.9C69.5003 174.8 74.1003 178.1 79.0003 177.5C79.8003 177.4 80.6003 177.2 81.3003 176.9L91.9003 173C94.1003 172.2 95.9003 170.7 97.0003 168.7C98.3003 166.7 98.8003 164.2 98.4003 161.8L98.3003 161C101.3 160.9 104.3 160.7 107.1 160.4C106.4 162.2 106.3 164.1 106.8 166.1C108 171 112.6 174.3 117.5 173.7C118.3 173.6 119.1 173.4 119.8 173.1L130.4 169.2C132.6 168.4 134.4 166.9 135.5 164.9C136.8 162.9 137.3 160.4 136.9 158L136.1 153.6C137.3 153.1 138.4 152.6 139.5 152.1C141.6 151.1 143.6 150 145.5 148.8C148.8 150.4 152.7 151 156.8 150.5C163.9 149.7 169.7 145.6 172.1 139.9C175.1 132.6 171.7 123.8 164.6 119.8C164.9 117.7 165 114.3 165 113.3C165.3 105 161.8 90.8997 153.6 77.5997C151.3 73.2997 148.8 69.2997 146.2 65.7997C145.4 57.4997 142.8 49.1997 138.3 42.0997C136.4 39.0997 131.1 33.9997 128.8 31.2997V31.0997C128.8 30.8997 128.8 30.6997 128.8 30.5997C128.8 30.1997 128.6 29.6997 128.2 29.1997Z" fill="white"/>
<path d="M164.9 137.1C166.5 133.3 164.2 128.6 160.5 126.7C153.7 123.3 140.4 129.6 144.9 138.2C148.7 145.3 162 144.2 164.9 137.1Z" fill="#E6BA16"/>
<path d="M88.1007 148.1C87.7007 145.6 83.7007 146 84.2007 148.6C84.9007 152.6 85.6007 156.7 86.3007 160.7C83.9007 160.1 81.6007 159.4 79.2007 158.8C76.7007 158.1 76.1007 162.1 78.6007 162.7C80.0007 163.1 81.4007 163.5 82.8007 163.8C81.0007 164.5 79.1007 165.2 77.3007 165.8C74.9007 166.7 76.4007 170.4 78.8007 169.5C82.3007 168.2 85.8007 166.9 89.4007 165.6C90.0007 165.4 90.3007 165 90.5007 164.6C90.8007 164.2 91.0007 163.7 90.9007 163.1C89.9007 158.1 89.0007 153.1 88.1007 148.1Z" fill="#020203"/>
<path d="M126.5 144.5C126.1 142 122.1 142.4 122.6 145C123.3 149 124 153.1 124.7 157.1C122.3 156.5 120 155.8 117.6 155.2C115.1 154.5 114.5 158.5 117 159.1C118.4 159.5 119.8 159.9 121.2 160.2C119.4 160.9 117.5 161.6 115.7 162.2C113.3 163.1 114.8 166.8 117.2 165.9C120.7 164.6 124.2 163.3 127.8 162C128.4 161.8 128.7 161.4 128.9 161C129.2 160.6 129.4 160.1 129.3 159.5C128.3 154.5 127.4 149.5 126.5 144.5Z" fill="#020203"/>
<path d="M39.1004 142.199C39.5004 143.899 40.2004 145.799 41.5004 146.899C43.5004 148.599 46.5004 148.599 48.9004 147.499C51.3004 146.399 53.1004 144.399 54.8004 142.499C56.7004 140.499 58.5004 138.299 59.6004 135.799C61.1004 132.099 60.7004 127.899 60.1004 123.899C59.6004 120.799 58.9004 117.699 58.2004 114.599C57.3004 111.299 54.8004 103.899 49.9004 105.199C47.1004 105.999 43.8004 112.799 42.5004 115.199C38.1004 123.399 36.8004 133.199 39.1004 142.199Z" fill="#E6BA16"/>
<path d="M150.6 89.0002C149.7 87.1002 148.8 85.2002 147.8 83.3002C137.1 62.6002 122 48.0002 97.1003 50.1002C44.5003 54.6002 20.5003 142.5 83.0003 152.4C86.9003 153 90.9003 153.3 94.9003 153.2C108.7 153 123.7 151.1 136.3 145.1C150.3 138.5 158.7 125.9 157.2 110.2C156.4 102.9 153.8 95.8002 150.6 89.0002Z" fill="#FFD712"/>
<path d="M64 110.1C61.7 112.1 60.9 114.7 62.7 118C65.6 123.1 82.4 119.3 86.8 118.7C92 118.1 104.7 116.9 104 109.1C103.5 104.1 97.9 103.3 93.9 103.2C90 103.3 70.7 104.3 64 110.1Z" fill="#FE9B34"/>
<path d="M67.6008 99.6993C71.3008 101.699 76.2008 100.899 79.4008 98.0993C81.5008 96.2993 82.8008 93.5993 82.9008 90.8993C83.0008 88.0993 81.7008 85.2993 79.4008 83.7993C68.6008 76.5993 56.0008 93.2993 67.6008 99.6993Z" fill="#F9F9F7"/>
<path d="M67.6012 96.7989C69.9012 98.0989 72.9012 97.4989 74.9012 95.7989C76.2012 94.6989 77.0012 92.9989 77.1012 91.2989C77.1012 89.5989 76.3012 87.7989 74.9012 86.8989C68.2012 82.4989 60.4012 92.7989 67.6012 96.7989Z" fill="#020203"/>
<path d="M102.2 95.6993C105.9 97.6993 110.8 96.8993 114 94.0993C116.1 92.2993 117.4 89.5993 117.5 86.8993C117.6 84.0993 116.3 81.2993 114 79.7993C103.2 72.5993 90.6004 89.2993 102.2 95.6993Z" fill="#F9F9F7"/>
<path d="M101.6 92.7995C103.9 94.0995 106.9 93.4995 108.9 91.7995C110.2 90.6995 111 88.9995 111.1 87.2995C111.1 85.5995 110.3 83.7995 108.9 82.8995C102.2 78.4995 94.4003 88.8995 101.6 92.7995Z" fill="#020203"/>
<path d="M126.6 98.1998C125.3 97.4998 124 96.6998 122.7 95.9998C122.1 95.6998 121.3 96.0998 121.1 96.5998C120.8 97.2998 121.2 97.8998 121.7 98.1998C123 98.8998 124.3 99.6998 125.6 100.4C126.2 100.7 127 100.3 127.2 99.7998C127.5 99.1998 127.2 98.4998 126.6 98.1998Z" fill="#E6BA16"/>
<path d="M128.701 93.2996C127.701 92.9996 126.601 92.6996 125.601 92.2996C125.001 92.0996 124.301 92.2996 124.001 92.8996C123.801 93.4996 124.001 94.2996 124.601 94.4996C125.601 94.7996 126.701 95.0996 127.701 95.4996C128.301 95.6996 129.001 95.4996 129.301 94.8996C129.501 94.3996 129.301 93.4996 128.701 93.2996Z" fill="#E6BA16"/>
<path d="M121.6 133.699C122 135.799 122.6 137.999 124.1 139.499C126.4 141.699 130.2 141.899 133.3 140.899C136.4 139.799 138.9 137.699 141.3 135.599C143.9 133.399 146.5 131.099 148.1 128.199C150.4 123.999 150.4 118.999 150 114.299C149.7 110.599 149.2 106.899 148.6 103.199C147.9 99.1995 145.5 90.2995 139.2 91.2995C135.5 91.8995 130.7 99.5995 128.8 102.299C122.5 111.499 119.7 122.899 121.6 133.699Z" fill="#E6BA16"/>
<path d="M59.3008 98.8996C58.2008 99.3996 57.2008 99.7996 56.1008 100.3C54.6008 100.9 55.6008 103.2 57.0008 102.6C58.1008 102.1 59.1008 101.7 60.2008 101.2C61.7008 100.5 60.8008 98.1996 59.3008 98.8996Z" fill="#E6BA16"/>
<path d="M61.0002 102.3C59.8002 103.4 58.6002 104.4 57.4002 105.5C56.2002 106.6 57.7002 108.6 58.9002 107.5C60.1002 106.4 61.3002 105.4 62.5002 104.3C63.7002 103.3 62.2002 101.3 61.0002 102.3Z" fill="#E6BA16"/>
<path d="M95.8999 109.2C87.7999 110.1 84.5999 110.5 76.4999 111.5C74.8999 111.7 75.1999 114.2 76.7999 114C84.8999 113.1 88.0999 112.7 96.1999 111.7C97.7999 111.5 97.4999 109 95.8999 109.2Z" fill="#F87911"/>
<path d="M78.8008 55.3999L138.601 68.8998C138.601 68.8998 137.601 38.6998 113.601 35.0998C89.8008 31.4998 78.8008 55.3999 78.8008 55.3999Z" fill="#3A208B"/>
<path d="M108.1 62C104.6 61.3 100.7 60.8 96.9003 60.6C92.5003 60.3 88.2003 60.3 84.9003 60.8C82.2003 61.2 79.5003 61.6 76.8003 62.3C70.7003 63.9 65.3003 66.7 60.4003 70.7C55.2003 67 50.5003 62.3 47.4003 56.6C46.8003 55.5 46.3003 54.4 45.8003 53.3C43.9003 48.4 43.2003 43.1 44.4003 38C45.1003 35.2 46.3003 32.4 48.5003 30.5C52.1003 27.4 57.5003 27.4 62.1003 28.7C71.3003 31.2 78.8003 37.7 85.7003 44.3C92.7003 50.8 99.4003 58 108.1 62Z" fill="#8875B6"/>
<path d="M96.9002 60.4999C92.5002 60.1999 88.2002 60.1999 84.9002 60.6999C82.2002 61.0999 79.5002 61.4999 76.8002 62.1999C70.7002 63.7999 65.3002 66.5999 60.4002 70.5999C55.2002 66.8999 50.5002 62.1999 47.4002 56.4999C46.8002 55.3999 46.3002 54.2999 45.8002 53.1999C44.9002 49.2999 44.7002 45.2999 45.5002 41.3999C46.1002 38.5999 47.3002 35.7999 49.3002 33.9999C52.7002 30.9999 57.7002 30.9999 62.0002 32.2999C70.6002 34.8999 77.7002 41.3999 84.1002 48.0999C88.3002 52.2999 92.3002 56.7999 96.9002 60.4999Z" fill="#020203"/>
<path d="M66.2 58.8C67 59.1 67.8 59.6 68.4 60.2C67.6 59.1 67 57.9 66.7 56.5C66.6 56 66.5 55.4 66.7 54.9C67 54.2 67.7 53.8 68.4 53.6C69.1 53.5 69.9 53.6 70.6 53.9C76.1 55.7 81.9 64.9 73.3 66.5C70.6 67 68.6 65.8 66.4 64.4C65.1 63.6 63.3 62.7 63.2 60.9C63.1 59.3 64.6 58.3 66.2 58.8Z" fill="#FFD712"/>
<path d="M119.5 37.6999C120 37.5999 120.6 37.4999 121 37.1999C122.2 36.4999 122.3 34.6999 121.6 33.4999C120.2 31.3999 114.3 29.8999 112.8 32.5999C112.2 33.7999 112.3 34.6999 112.9 35.4999C112.8 35.6999 112.7 35.9999 112.9 36.2999C116.7 43.9999 115.4 53.2999 109.7 59.7999C108.8 60.7999 110.4 61.9999 111.3 60.9999C117 54.4999 118.6 45.0999 115.5 37.0999C115.7 37.1999 115.9 37.1999 116.2 37.2999C124 43.7999 129 53.0999 130 63.1999C130.1 64.4999 132.1 64.1999 132 62.9999C130.9 53.2999 126.5 44.2999 119.5 37.6999Z" fill="#8875B6"/>
<path d="M137.6 81.0994C137.9 83.5994 136.1 85.7994 133.6 86.0994C131.1 86.3994 128.9 84.5994 128.6 82.0994C128.3 79.5994 132 71.8994 132 71.8994C132 71.8994 137.3 78.5994 137.6 81.0994Z" fill="#6E9CC8"/>
<path d="M146.9 92.9998C147.2 95.4998 145.4 97.6998 142.9 97.9998C140.4 98.2998 138.2 96.4998 137.9 93.9998C137.6 91.4998 141.3 83.7998 141.3 83.7998C141.3 83.7998 146.6 90.5998 146.9 92.9998Z" fill="#6E9CC8"/>
</g>
<defs>
<filter id="filter0_d" x="0" y="0" width="203.2" height="217.5" filterUnits="userSpaceOnUse" color-interpolation-filters="sRGB">
<feFlood flood-opacity="0" result="BackgroundImageFix"/>
<feColorMatrix in="SourceAlpha" type="matrix" values="0 0 0 0 0 0 0 0 0 0 0 0 0 0 0 0 0 0 127 0"/>
<feOffset dy="10"/>
<feGaussianBlur stdDeviation="15"/>
<feColorMatrix type="matrix" values="0 0 0 0 0 0 0 0 0 0 0 0 0 0 0 0 0 0 0.3 0"/>
<feBlend mode="normal" in2="BackgroundImageFix" result="effect1_dropShadow"/>
<feBlend mode="normal" in="SourceGraphic" in2="effect1_dropShadow" result="shape"/>
</filter>
<clipPath id="clip0">
<rect width="143.2" height="157.5" fill="white" transform="translate(30 20)"/>
</clipPath>
</defs>
</svg>
