<svg width="259" height="290" viewBox="0 0 259 290" fill="none" xmlns="http://www.w3.org/2000/svg">
<path d="M102.07 245.924L105.533 232.689L108.737 233.528L105.274 246.762L109.732 247.929L108.942 250.947L96.8218 247.775L97.6118 244.757L102.07 245.924Z" fill="white"/>
<path d="M71.4995 232.73L66.2938 229.204C64.0154 227.66 63.4865 225.987 64.707 224.186C65.416 223.14 66.3285 222.762 67.4447 223.055C66.4277 221.96 66.3276 220.81 67.1442 219.604C67.8532 218.558 68.6694 218.009 69.5928 217.959C70.5163 217.908 71.6535 218.34 73.0046 219.255L78.2303 222.796L71.4995 232.73ZM70.43 228.875L71.628 227.107L69.0848 225.384C68.387 224.93 67.8407 224.995 67.4458 225.578C67.0509 226.16 67.2111 226.694 67.9264 227.179L70.43 228.875ZM74.253 223.232L71.4912 221.361C70.6434 220.787 69.9862 220.844 69.5196 221.533C69.0708 222.195 69.2526 222.811 70.0649 223.381L72.8665 225.279L74.253 223.232Z" fill="white"/>
<path d="M37.0472 203.36C36.0305 201.983 35.655 200.45 35.9208 198.763C36.1736 197.085 36.9823 195.742 38.3469 194.735C39.7114 193.728 41.2327 193.351 42.9109 193.603C44.589 193.856 45.9364 194.671 46.9531 196.049C47.9697 197.426 48.3517 198.954 48.0988 200.632C47.8364 202.297 47.023 203.634 45.6584 204.641C44.281 205.657 42.7532 206.039 41.0751 205.786C39.397 205.534 38.0544 204.725 37.0472 203.36ZM38.8733 199.328C38.7452 200.178 38.9282 200.938 39.4223 201.607C39.9164 202.277 40.5933 202.682 41.453 202.823C42.2904 202.96 43.0888 202.749 43.8484 202.188C44.6079 201.628 45.0453 200.927 45.1605 200.086C45.2757 199.246 45.0816 198.484 44.578 197.802C44.0839 197.132 43.4181 196.729 42.5808 196.591C41.7339 196.441 40.9307 196.646 40.1712 197.206C39.4117 197.767 38.9791 198.474 38.8733 199.328Z" fill="white"/>
<path d="M14.9723 166.09C15.8364 166.585 16.4183 167.338 16.7181 168.351C17.018 169.363 16.9425 170.32 16.4918 171.221C16.0212 172.112 15.2873 172.704 14.29 173L13.6904 170.975C14.1046 170.852 14.4121 170.594 14.6127 170.201C14.798 169.812 14.8248 169.395 14.693 168.951C14.5613 168.506 14.3119 168.171 13.9449 167.946C13.5581 167.71 13.1575 167.653 12.7433 167.776L12.1505 165.774C13.1477 165.478 14.0883 165.584 14.9723 166.09ZM27.6398 159.335L28.5052 162.258L21.7166 164.268L30.2496 168.149L30.8083 170.036L19.3021 173.443L18.4368 170.52L25.2254 168.51L16.6924 164.629L16.1336 162.742L27.6398 159.335Z" fill="white"/>
<path d="M11.3603 95.3439L12.2544 92.43C13.4016 92.7821 14.1573 93.3738 14.5214 94.2052C14.8902 95.0213 14.8353 96.2094 14.3565 97.7696L14.1312 98.5038C13.798 99.5898 13.7875 100.524 14.0998 101.306C14.3969 102.083 15.0043 102.613 15.922 102.894L16.4268 103.049C15.9747 102.559 15.6766 101.949 15.5326 101.218C15.3932 100.473 15.4385 99.725 15.6685 98.9755C16.1613 97.3695 17.0627 96.2318 18.3726 95.5627C19.6826 94.8935 21.1176 94.7983 22.6778 95.277C24.3604 95.7933 25.601 96.7682 26.3997 98.2015C27.1983 99.6349 27.3278 101.231 26.788 102.99C26.2717 104.673 25.2763 105.899 23.8017 106.668C22.3272 107.437 20.6645 107.538 18.8137 106.97L16.0604 106.125C14.0413 105.505 12.6571 104.453 11.9078 102.968C11.1479 101.463 11.0942 99.6472 11.7466 97.5211C11.9719 96.7868 12.0556 96.2686 11.9977 95.9663C11.9399 95.664 11.7274 95.4566 11.3603 95.3439ZM18.184 100.35C17.9399 101.145 18.0017 101.926 18.3693 102.691C18.7416 103.442 19.3407 103.943 20.1667 104.197C21.008 104.455 21.7931 104.378 22.5221 103.966C23.2359 103.549 23.7171 102.935 23.9659 102.124C24.2146 101.313 24.1605 100.535 23.8035 99.7898C23.4312 99.0396 22.8244 98.5354 21.9831 98.2773C21.1572 98.0238 20.3773 98.1109 19.6436 98.5384C18.9099 98.966 18.4233 99.5698 18.184 100.35Z" fill="white"/>
<path d="M44.7591 65.61L42.9249 68.0444L37.2703 63.7839L39.2277 72.9514L38.0434 74.5232L28.4593 67.3021L30.2935 64.8677L35.9481 69.1282L33.9907 59.9606L35.175 58.3889L44.7591 65.61Z" fill="white"/>
<path d="M63.248 37.114L64.5912 45.2033L61.8759 46.9711L59.9746 33.8898L61.6239 32.816L72.8173 39.8476L70.1222 41.6023L63.248 37.114Z" fill="white"/>
<path d="M96.7128 15.8888C99.1853 15.2899 101.15 15.9253 102.607 17.7948C102.965 18.2515 103.248 18.8415 103.456 19.5648C103.66 20.2726 103.735 20.8882 103.681 21.4117L95.5402 23.3835C95.7247 24.1454 96.1419 24.6782 96.7916 24.9818C97.4569 25.2816 98.2016 25.3317 99.0258 25.1321C100.316 24.8195 101.425 24.263 102.35 23.4626L104.325 24.7868C102.986 26.3952 101.438 27.4122 99.6811 27.8378C97.924 28.2635 96.3577 28.0502 94.9825 27.198C93.6034 26.3302 92.7049 25.0333 92.2868 23.3072C91.8725 21.5967 92.0643 20.0439 92.8623 18.6488C93.6566 17.2382 94.9401 16.3182 96.7128 15.8888ZM97.3682 18.5946C96.6062 18.7791 96.0233 19.159 95.6194 19.7343C95.231 20.3058 95.0928 20.8907 95.2048 21.4892L100.546 20.1954C100.464 19.8533 100.295 19.5649 100.04 19.3302C99.363 18.5723 98.4723 18.3271 97.3682 18.5946Z" fill="white"/>
<path d="M135.931 14.7121L135.164 23.7275L132.151 23.4712L132.918 14.4557L129.188 14.1384L129.438 11.197L139.912 12.0881L139.662 15.0294L135.931 14.7121Z" fill="white"/>
<path d="M191.932 29.1717L196.957 32.9522C199.156 34.6067 199.601 36.3034 198.293 38.0422C197.533 39.0522 196.603 39.3836 195.502 39.0364C196.464 40.1802 196.507 41.3339 195.632 42.4974C194.872 43.5074 194.029 44.0149 193.105 44.0199C192.18 44.0249 191.065 43.5368 189.761 42.5556L184.717 38.7608L191.932 29.1717ZM192.809 33.0755L191.525 34.7823L193.98 36.6292C194.654 37.1167 195.203 37.0791 195.626 36.5165C196.05 35.954 195.916 35.413 195.226 34.8935L192.809 33.0755ZM188.711 38.522L191.377 40.5277C192.195 41.1433 192.855 41.1187 193.355 40.4539C193.836 39.8146 193.685 39.1904 192.902 38.5812L190.197 36.5467L188.711 38.522Z" fill="white"/>
<path d="M229.617 95.9616L228.624 93.0798L235.318 90.7743L230.571 88.8557L233.13 84.4206L226.436 86.726L225.443 83.8442L236.789 79.9366L237.43 81.7973L234.02 87.6678L240.322 90.1933L240.963 92.054L229.617 95.9616Z" fill="white"/>
<path d="M234.986 133.166L235.087 130.119L242.163 130.355L235.292 123.979L235.357 122.012L247.35 122.411L247.249 125.457L240.173 125.222L247.045 131.598L246.979 133.565L234.986 133.166Z" fill="white"/>
<path d="M239.921 165.592C240.684 166.977 240.746 168.447 240.108 170.001C239.469 171.555 238.393 172.618 236.878 173.189C235.364 173.761 233.807 173.718 232.209 173.062C230.61 172.405 229.466 171.338 228.775 169.861C228.099 168.39 228.081 166.878 228.719 165.324C229.211 164.125 230.027 163.318 231.166 162.904L225.993 160.779L227.151 157.96L242.336 164.197L241.561 166.084L239.921 165.592ZM237.496 168.591C237.812 167.822 237.815 167.036 237.504 166.234C237.187 165.446 236.592 164.873 235.719 164.515C234.846 164.156 234.013 164.142 233.219 164.474C232.435 164.826 231.884 165.387 231.568 166.157C231.252 166.926 231.252 167.705 231.569 168.492C231.894 169.3 232.494 169.884 233.367 170.242C234.24 170.601 235.066 170.612 235.844 170.274C236.623 169.937 237.173 169.376 237.496 168.591Z" fill="white"/>
<path d="M191.885 214.757L198.146 210.116L199.374 211.773L198.271 213.787L204.872 222.693L207.12 222.223L208.349 223.88L202.088 228.52L200.86 226.863L201.963 224.849L195.362 215.943L193.114 216.414L191.885 214.757Z" fill="white"/>
<path d="M172.215 241.033L167.642 228.14L170.763 227.033L175.336 239.926L179.679 238.385L180.722 241.326L168.915 245.514L167.872 242.573L172.215 241.033Z" fill="white"/>
</svg>
