<svg aria-hidden="true" style="position: absolute; width: 0; height: 0; overflow: hidden;" version="1.1" xmlns="http://www.w3.org/2000/svg" xmlns:xlink="http://www.w3.org/1999/xlink">
<defs>
<symbol id="icon-sticker" viewBox="0 0 29 32">
<path fill="#fff" style="fill: var(--color1, #fff)" d="M19.952 1.869c-0.061-0.081-0.122-0.142-0.163-0.203-0.122-0.142-0.264-0.264-0.406-0.386-0.305-0.224-0.67-0.386-1.036-0.488-0.345-0.102-0.711-0.142-1.056-0.122-0.041 0-0.102 0-0.142 0.020-0.569 0.061-1.077 0.325-1.422 0.711-0.183 0-0.366 0.020-0.549 0.041-1.463 0.163-2.682 0.752-3.637 1.443-1.3-1.117-2.763-2.174-4.571-2.662-0.731-0.203-1.463-0.264-2.133-0.183-0.813 0.102-1.524 0.386-2.093 0.874-0.67 0.569-1.138 1.382-1.361 2.377-0.305 1.3-0.183 2.702 0.345 4.043 0.122 0.284 0.244 0.589 0.406 0.853 0.081 0.163 0.183 0.305 0.264 0.467 0.427 0.67 0.955 1.321 1.605 1.91-1.402 2.174-2.235 4.693-2.377 7.070-0.142 0.264-0.305 0.528-0.447 0.813l-0.081 0.142c-1.077 2.032-1.361 4.45-0.813 6.623 0.142 0.549 0.386 1.239 0.996 1.768 0.589 0.508 1.361 0.731 2.194 0.65 0.345-0.041 0.691-0.142 1.016-0.284 0.447-0.203 0.813-0.488 1.117-0.772 0.731 0.508 1.564 0.955 2.458 1.28-0.061 0.163-0.102 0.345-0.122 0.549s0 0.406 0.041 0.61c-0.244 0.427-0.325 0.914-0.203 1.443 0.244 0.996 1.178 1.666 2.174 1.544 0.163-0.020 0.325-0.061 0.467-0.122l2.154-0.792c0.447-0.163 0.813-0.467 1.036-0.874 0.264-0.406 0.366-0.914 0.284-1.402l-0.020-0.163c0.61-0.020 1.219-0.061 1.788-0.122-0.142 0.366-0.163 0.752-0.061 1.158 0.244 0.996 1.178 1.666 2.174 1.544 0.163-0.020 0.325-0.061 0.467-0.122l2.154-0.792c0.447-0.163 0.813-0.467 1.036-0.874 0.264-0.406 0.366-0.914 0.284-1.402l-0.163-0.894c0.244-0.102 0.467-0.203 0.691-0.305 0.427-0.203 0.833-0.427 1.219-0.67 0.67 0.325 1.463 0.447 2.296 0.345 1.443-0.163 2.621-0.996 3.109-2.154 0.61-1.483-0.081-3.271-1.524-4.084 0.061-0.427 0.081-1.117 0.081-1.321 0.061-1.686-0.65-4.551-2.316-7.253-0.467-0.874-0.975-1.686-1.503-2.397-0.163-1.686-0.691-3.373-1.605-4.815-0.386-0.61-1.463-1.646-1.93-2.194v-0.041c0-0.041 0-0.081 0-0.102 0-0.081-0.041-0.183-0.122-0.284z"></path>
<path fill="#e6ba16" style="fill: var(--color2, #e6ba16)" d="M27.408 23.792c0.325-0.772-0.142-1.727-0.894-2.113-1.382-0.691-4.084 0.589-3.17 2.337 0.772 1.443 3.474 1.219 4.064-0.224z"></path>
<path fill="#020203" style="fill: var(--color3, #020203)" d="M11.804 26.027c-0.081-0.508-0.894-0.427-0.792 0.102 0.142 0.813 0.284 1.646 0.427 2.458-0.488-0.122-0.955-0.264-1.443-0.386-0.508-0.142-0.63 0.67-0.122 0.792 0.284 0.081 0.569 0.163 0.853 0.224-0.366 0.142-0.752 0.284-1.117 0.406-0.488 0.183-0.183 0.935 0.305 0.752 0.711-0.264 1.422-0.528 2.154-0.792 0.122-0.041 0.183-0.122 0.223-0.203 0.061-0.081 0.102-0.183 0.081-0.305-0.203-1.016-0.386-2.032-0.569-3.048z"></path>
<path fill="#020203" style="fill: var(--color3, #020203)" d="M19.606 25.295c-0.081-0.508-0.894-0.427-0.792 0.102 0.142 0.813 0.284 1.646 0.427 2.458-0.488-0.122-0.955-0.264-1.443-0.386-0.508-0.142-0.63 0.67-0.122 0.792 0.284 0.081 0.569 0.163 0.853 0.224-0.366 0.142-0.752 0.284-1.117 0.406-0.488 0.183-0.183 0.935 0.305 0.752 0.711-0.264 1.422-0.528 2.154-0.792 0.122-0.041 0.183-0.122 0.224-0.203 0.061-0.081 0.102-0.183 0.081-0.305-0.203-1.016-0.386-2.032-0.569-3.048z"></path>
<path fill="#e6ba16" style="fill: var(--color2, #e6ba16)" d="M1.849 24.828c0.081 0.345 0.224 0.731 0.488 0.955 0.406 0.345 1.016 0.345 1.503 0.122s0.853-0.63 1.199-1.016c0.386-0.406 0.752-0.853 0.975-1.361 0.305-0.752 0.223-1.605 0.102-2.418-0.102-0.63-0.244-1.26-0.386-1.89-0.183-0.67-0.691-2.174-1.686-1.91-0.569 0.163-1.239 1.544-1.503 2.032-0.894 1.666-1.158 3.657-0.691 5.486z"></path>
<path fill="#ffd712" style="fill: var(--color4, #ffd712)" d="M24.503 14.019c-0.183-0.386-0.366-0.772-0.569-1.158-2.174-4.206-5.242-7.172-10.301-6.745-10.687 0.914-15.563 18.773-2.865 20.785 0.792 0.122 1.605 0.183 2.418 0.163 2.804-0.041 5.851-0.427 8.411-1.646 2.844-1.341 4.551-3.901 4.246-7.091-0.163-1.483-0.691-2.926-1.341-4.307z"></path>
<path fill="#fe9b34" style="fill: var(--color5, #fe9b34)" d="M6.908 18.306c-0.467 0.406-0.63 0.935-0.264 1.605 0.589 1.036 4.003 0.264 4.896 0.142 1.056-0.122 3.637-0.366 3.495-1.95-0.102-1.016-1.239-1.178-2.052-1.199-0.792 0.020-4.714 0.224-6.075 1.402z"></path>
<path fill="#f9f9f7" style="fill: var(--color6, #f9f9f7)" d="M7.639 16.193c0.752 0.406 1.747 0.244 2.397-0.325 0.427-0.366 0.691-0.914 0.711-1.463 0.020-0.569-0.244-1.138-0.711-1.443-2.194-1.463-4.754 1.93-2.397 3.23z"></path>
<path fill="#020203" style="fill: var(--color3, #020203)" d="M7.639 15.604c0.467 0.264 1.077 0.142 1.483-0.203 0.264-0.223 0.427-0.569 0.447-0.914 0-0.345-0.163-0.711-0.447-0.894-1.361-0.894-2.946 1.199-1.483 2.011z"></path>
<path fill="#f9f9f7" style="fill: var(--color6, #f9f9f7)" d="M14.669 15.38c0.752 0.406 1.747 0.244 2.397-0.325 0.427-0.366 0.691-0.914 0.711-1.463 0.020-0.569-0.244-1.138-0.711-1.443-2.194-1.463-4.754 1.93-2.397 3.23z"></path>
<path fill="#020203" style="fill: var(--color3, #020203)" d="M14.547 14.791c0.467 0.264 1.077 0.142 1.483-0.203 0.264-0.223 0.427-0.569 0.447-0.914 0-0.345-0.163-0.711-0.447-0.894-1.361-0.894-2.946 1.219-1.483 2.011z"></path>
<path fill="#e6ba16" style="fill: var(--color2, #e6ba16)" d="M19.627 15.888c-0.264-0.142-0.528-0.305-0.792-0.447-0.122-0.061-0.284 0.020-0.325 0.122-0.061 0.142 0.020 0.264 0.122 0.325 0.264 0.142 0.528 0.305 0.792 0.447 0.122 0.061 0.284-0.020 0.325-0.122 0.061-0.122 0-0.264-0.122-0.325z"></path>
<path fill="#e6ba16" style="fill: var(--color2, #e6ba16)" d="M20.053 14.893c-0.203-0.061-0.427-0.122-0.63-0.203-0.122-0.041-0.264 0-0.325 0.122-0.041 0.122 0 0.284 0.122 0.325 0.203 0.061 0.427 0.122 0.63 0.203 0.122 0.041 0.264 0 0.325-0.122 0.041-0.102 0-0.284-0.122-0.325z"></path>
<path fill="#e6ba16" style="fill: var(--color2, #e6ba16)" d="M18.611 23.101c0.081 0.427 0.203 0.874 0.508 1.178 0.467 0.447 1.239 0.488 1.869 0.284 0.63-0.224 1.138-0.65 1.625-1.077 0.528-0.447 1.056-0.914 1.382-1.503 0.467-0.853 0.467-1.869 0.386-2.824-0.061-0.752-0.163-1.503-0.284-2.255-0.142-0.813-0.63-2.621-1.91-2.418-0.752 0.122-1.727 1.686-2.113 2.235-1.28 1.869-1.849 4.185-1.463 6.38z"></path>
<path fill="#e6ba16" style="fill: var(--color2, #e6ba16)" d="M5.953 16.030c-0.223 0.102-0.427 0.183-0.65 0.284-0.305 0.122-0.102 0.589 0.183 0.467 0.223-0.102 0.427-0.183 0.65-0.284 0.305-0.142 0.122-0.61-0.183-0.467z"></path>
<path fill="#e6ba16" style="fill: var(--color2, #e6ba16)" d="M6.298 16.721c-0.244 0.224-0.488 0.427-0.731 0.65s0.061 0.63 0.305 0.406 0.488-0.427 0.731-0.65c0.244-0.203-0.061-0.61-0.305-0.406z"></path>
<path fill="#f87911" style="fill: var(--color7, #f87911)" d="M13.389 18.123c-1.646 0.183-2.296 0.264-3.942 0.467-0.325 0.041-0.264 0.549 0.061 0.508 1.646-0.183 2.296-0.264 3.942-0.467 0.325-0.041 0.264-0.549-0.061-0.508z"></path>
<path fill="#3a208b" style="fill: var(--color8, #3a208b)" d="M9.915 7.192l12.15 2.743c0 0-0.203-6.136-5.079-6.867-4.836-0.731-7.070 4.124-7.070 4.124z"></path>
<path fill="#8875b6" style="fill: var(--color9, #8875b6)" d="M15.868 8.533c-0.711-0.142-1.504-0.244-2.276-0.284-0.894-0.061-1.768-0.061-2.438 0.041-0.549 0.081-1.097 0.163-1.646 0.305-1.239 0.325-2.337 0.894-3.332 1.707-1.056-0.752-2.011-1.707-2.641-2.865-0.122-0.223-0.224-0.447-0.325-0.67-0.386-0.996-0.528-2.072-0.284-3.109 0.142-0.569 0.386-1.138 0.833-1.524 0.731-0.63 1.829-0.63 2.763-0.366 1.869 0.508 3.393 1.829 4.795 3.17 1.422 1.321 2.784 2.784 4.551 3.596z"></path>
<path fill="#020203" style="fill: var(--color3, #020203)" d="M13.592 8.229c-0.894-0.061-1.768-0.061-2.438 0.041-0.549 0.081-1.097 0.163-1.646 0.305-1.239 0.325-2.337 0.894-3.332 1.707-1.056-0.752-2.011-1.707-2.641-2.865-0.122-0.223-0.224-0.447-0.325-0.67-0.183-0.792-0.224-1.605-0.061-2.397 0.122-0.569 0.366-1.138 0.772-1.503 0.691-0.61 1.707-0.61 2.58-0.345 1.747 0.528 3.19 1.849 4.49 3.21 0.853 0.853 1.666 1.768 2.601 2.519z"></path>
<path fill="#ffd712" style="fill: var(--color4, #ffd712)" d="M7.355 7.883c0.163 0.061 0.325 0.163 0.447 0.284-0.163-0.223-0.284-0.467-0.345-0.752-0.020-0.102-0.041-0.223 0-0.325 0.061-0.142 0.203-0.223 0.345-0.264 0.142-0.020 0.305 0 0.447 0.061 1.117 0.366 2.296 2.235 0.549 2.56-0.549 0.102-0.955-0.142-1.402-0.427-0.264-0.163-0.63-0.345-0.65-0.711-0.020-0.325 0.284-0.528 0.61-0.427z"></path>
<path fill="#8875b6" style="fill: var(--color9, #8875b6)" d="M18.184 3.596v0c0.102-0.020 0.224-0.041 0.305-0.102 0.244-0.142 0.264-0.508 0.122-0.752-0.284-0.427-1.483-0.731-1.788-0.183-0.122 0.244-0.102 0.427 0.020 0.589-0.020 0.041-0.041 0.102 0 0.163 0.772 1.564 0.508 3.454-0.65 4.775-0.183 0.203 0.142 0.447 0.325 0.244 1.158-1.321 1.483-3.23 0.853-4.856 0.041 0.020 0.081 0.020 0.142 0.041 1.585 1.321 2.601 3.21 2.804 5.262 0.020 0.264 0.427 0.203 0.406-0.041-0.224-1.971-1.117-3.799-2.54-5.14z"></path>
<path fill="#6e9cc8" style="fill: var(--color10, #6e9cc8)" d="M21.862 12.414c0.061 0.508-0.305 0.955-0.813 1.016s-0.955-0.305-1.016-0.813c-0.061-0.508 0.691-2.072 0.691-2.072s1.077 1.361 1.138 1.869z"></path>
<path fill="#6e9cc8" style="fill: var(--color10, #6e9cc8)" d="M23.751 14.832c0.061 0.508-0.305 0.955-0.813 1.016s-0.955-0.305-1.016-0.813 0.691-2.072 0.691-2.072 1.077 1.382 1.138 1.869z"></path>
</symbol>
<symbol id="icon-fire" viewBox="0 0 25 32">
<path d="M23.628 14.059c-0.674-1.517-1.654-2.879-2.878-4l-1.011-0.927c-0.034-0.031-0.076-0.052-0.12-0.063s-0.091-0.011-0.136 0.001c-0.044 0.011-0.086 0.033-0.12 0.064s-0.060 0.070-0.076 0.113l-0.451 1.295c-0.281 0.813-0.799 1.642-1.531 2.458-0.049 0.052-0.104 0.066-0.142 0.069s-0.097-0.003-0.149-0.052c-0.049-0.042-0.073-0.104-0.069-0.167 0.128-2.090-0.497-4.448-1.865-7.014-1.132-2.132-2.705-3.795-4.67-4.955l-1.434-0.844c-0.188-0.111-0.427 0.035-0.417 0.253l0.076 1.667c0.052 1.139-0.080 2.146-0.392 2.983-0.382 1.024-0.931 1.976-1.632 2.83-0.488 0.594-1.041 1.131-1.649 1.601-1.464 1.126-2.655 2.568-3.483 4.219-0.826 1.665-1.256 3.499-1.257 5.358 0 1.639 0.323 3.226 0.962 4.722 0.617 1.441 1.507 2.749 2.622 3.851 1.125 1.111 2.431 1.986 3.885 2.594 1.507 0.632 3.104 0.951 4.753 0.951s3.247-0.319 4.753-0.948c1.451-0.604 2.771-1.485 3.885-2.594 1.125-1.111 2.007-2.41 2.622-3.851 0.638-1.492 0.965-3.099 0.962-4.722 0-1.694-0.347-3.34-1.038-4.892z"></path>
</symbol>
<symbol id="icon-linkedin" viewBox="0 0 32 32">
<path d="M0 0v32h32v-32h-32zM7.848 6.291c1.267 0.014 2.516 0.889 2.57 2.402 0.027 1.346-1.146 2.371-2.604 2.402h-0.035c-1.255-0.014-2.48-0.911-2.537-2.402 0.018-1.331 1.137-2.371 2.605-2.402zM21.445 12.65c1.393 0.009 2.709 0.422 3.789 1.523 1.123 1.252 1.483 2.979 1.523 4.734v7.984h-4.602v-7.441c-0.010-1.395-0.488-3.090-2.334-3.147-1.082 0.012-1.845 0.64-2.367 1.691-0.143 0.338-0.163 0.727-0.17 1.115v7.781h-4.6c0.018-3.89 0.042-7.78 0.033-11.67 0-1.105-0.011-1.849-0.033-2.232h4.6v1.961c0.39-0.555 0.823-1.082 1.404-1.506 0.788-0.562 1.734-0.778 2.756-0.795zM5.514 12.99h4.6v13.902h-4.6v-13.902z"></path>
</symbol>
<symbol id="icon-telegram" viewBox="0 0 31 32">
<path d="M30.349 1.651c-0.173-0.172-0.391-0.291-0.629-0.343s-0.486-0.035-0.715 0.049l-28.16 10.24c-0.243 0.092-0.452 0.256-0.6 0.47s-0.227 0.467-0.227 0.727c0 0.26 0.079 0.513 0.227 0.727s0.357 0.377 0.6 0.47l10.995 4.39 8.115-8.141 1.805 1.805-8.154 8.154 4.403 10.995c0.095 0.238 0.259 0.442 0.471 0.586s0.463 0.221 0.719 0.22c0.259-0.005 0.51-0.089 0.72-0.24s0.37-0.362 0.458-0.605l10.24-28.16c0.087-0.226 0.108-0.473 0.061-0.711s-0.162-0.458-0.329-0.633z"></path>
</symbol>
</defs>
</svg>
