<svg aria-hidden="true" style="position: absolute; width: 0; height: 0; overflow: hidden;" version="1.1" xmlns="http://www.w3.org/2000/svg" xmlns:xlink="http://www.w3.org/1999/xlink">
<defs>
<symbol id="icon-fire" viewBox="0 0 25 32">
<path d="M23.628 14.059c-0.674-1.517-1.654-2.879-2.878-4l-1.011-0.927c-0.034-0.031-0.076-0.052-0.12-0.063s-0.091-0.011-0.136 0.001c-0.044 0.011-0.086 0.033-0.12 0.064s-0.060 0.070-0.076 0.113l-0.451 1.295c-0.281 0.813-0.799 1.642-1.531 2.458-0.049 0.052-0.104 0.066-0.142 0.069s-0.097-0.003-0.149-0.052c-0.049-0.042-0.073-0.104-0.069-0.167 0.128-2.090-0.497-4.448-1.865-7.014-1.132-2.132-2.705-3.795-4.67-4.955l-1.434-0.844c-0.188-0.111-0.427 0.035-0.417 0.253l0.076 1.667c0.052 1.139-0.080 2.146-0.392 2.983-0.382 1.024-0.931 1.976-1.632 2.83-0.488 0.594-1.041 1.131-1.649 1.601-1.464 1.126-2.655 2.568-3.483 4.219-0.826 1.665-1.256 3.499-1.257 5.358 0 1.639 0.323 3.226 0.962 4.722 0.617 1.441 1.507 2.749 2.622 3.851 1.125 1.111 2.431 1.986 3.885 2.594 1.507 0.632 3.104 0.951 4.753 0.951s3.247-0.319 4.753-0.948c1.451-0.604 2.771-1.485 3.885-2.594 1.125-1.111 2.007-2.41 2.622-3.851 0.638-1.492 0.965-3.099 0.962-4.722 0-1.694-0.347-3.34-1.038-4.892z"></path>
</symbol>
<symbol id="icon-linkedin" viewBox="0 0 32 32">
<path d="M0 0v32h32v-32h-32zM7.848 6.291c1.267 0.014 2.516 0.889 2.57 2.402 0.027 1.346-1.146 2.371-2.604 2.402h-0.035c-1.255-0.014-2.48-0.911-2.537-2.402 0.018-1.331 1.137-2.371 2.605-2.402zM21.445 12.65c1.393 0.009 2.709 0.422 3.789 1.523 1.123 1.252 1.483 2.979 1.523 4.734v7.984h-4.602v-7.441c-0.010-1.395-0.488-3.090-2.334-3.147-1.082 0.012-1.845 0.64-2.367 1.691-0.143 0.338-0.163 0.727-0.17 1.115v7.781h-4.6c0.018-3.89 0.042-7.78 0.033-11.67 0-1.105-0.011-1.849-0.033-2.232h4.6v1.961c0.39-0.555 0.823-1.082 1.404-1.506 0.788-0.562 1.734-0.778 2.756-0.795zM5.514 12.99h4.6v13.902h-4.6v-13.902z"></path>
</symbol>
<symbol id="icon-telegram" viewBox="0 0 31 32">
<path d="M30.349 1.651c-0.173-0.172-0.391-0.291-0.629-0.343s-0.486-0.035-0.715 0.049l-28.16 10.24c-0.243 0.092-0.452 0.256-0.6 0.47s-0.227 0.467-0.227 0.727c0 0.26 0.079 0.513 0.227 0.727s0.357 0.377 0.6 0.47l10.995 4.39 8.115-8.141 1.805 1.805-8.154 8.154 4.403 10.995c0.095 0.238 0.259 0.442 0.471 0.586s0.463 0.221 0.719 0.22c0.259-0.005 0.51-0.089 0.72-0.24s0.37-0.362 0.458-0.605l10.24-28.16c0.087-0.226 0.108-0.473 0.061-0.711s-0.162-0.458-0.329-0.633z"></path>
</symbol>
</defs>
</svg>
