<?xml version="1.0" encoding="utf-8"?>
<!-- Generator: Adobe Illustrator 24.0.1, SVG Export Plug-In . SVG Version: 6.00 Build 0)  -->
<svg version="1.1" id="Layer_1" xmlns="http://www.w3.org/2000/svg" xmlns:xlink="http://www.w3.org/1999/xlink" x="0px" y="0px"
	 width="143.2px" height="157.5px" viewBox="0 0 143.2 157.5" enable-background="new 0 0 143.2 157.5" xml:space="preserve">
<g id="Слой_3_1_">
	<g>
		<g>
			<g>
				<g>
					<path fill="#FFFFFF" d="M98.2,9.2c-0.3-0.4-0.6-0.7-0.8-1c-0.6-0.7-1.3-1.3-2-1.9c-1.5-1.1-3.3-1.9-5.1-2.4
						c-1.7-0.5-3.5-0.7-5.2-0.6c-0.2,0-0.5,0-0.7,0.1c-2.8,0.3-5.3,1.6-7,3.5c-0.9,0-1.8,0.1-2.7,0.2c-7.2,0.8-13.2,3.7-17.9,7.1
						C50.4,8.7,43.2,3.5,34.3,1.1c-3.6-1-7.2-1.3-10.5-0.9c-4,0.5-7.5,1.9-10.3,4.3c-3.3,2.8-5.6,6.8-6.7,11.7
						c-1.5,6.4-0.9,13.3,1.7,19.9c0.6,1.4,1.2,2.9,2,4.2c0.4,0.8,0.9,1.5,1.3,2.3c2.1,3.3,4.7,6.5,7.9,9.4
						C12.8,62.7,8.7,75.1,8,86.8c-0.7,1.3-1.5,2.6-2.2,4l-0.4,0.7c-5.3,10-6.7,21.9-4,32.6c0.7,2.7,1.9,6.1,4.9,8.7
						c2.9,2.5,6.7,3.6,10.8,3.2c1.7-0.2,3.4-0.7,5-1.4c2.2-1,4-2.4,5.5-3.8c3.6,2.5,7.7,4.7,12.1,6.3c-0.3,0.8-0.5,1.7-0.6,2.7
						s0,2,0.2,3c-1.2,2.1-1.6,4.5-1,7.1c1.2,4.9,5.8,8.2,10.7,7.6c0.8-0.1,1.6-0.3,2.3-0.6l10.6-3.9c2.2-0.8,4-2.3,5.1-4.3
						c1.3-2,1.8-4.5,1.4-6.9l-0.1-0.8c3-0.1,6-0.3,8.8-0.6c-0.7,1.8-0.8,3.7-0.3,5.7c1.2,4.9,5.8,8.2,10.7,7.6
						c0.8-0.1,1.6-0.3,2.3-0.6l10.6-3.9c2.2-0.8,4-2.3,5.1-4.3c1.3-2,1.8-4.5,1.4-6.9l-0.8-4.4c1.2-0.5,2.3-1,3.4-1.5
						c2.1-1,4.1-2.1,6-3.3c3.3,1.6,7.2,2.2,11.3,1.7c7.1-0.8,12.9-4.9,15.3-10.6c3-7.3-0.4-16.1-7.5-20.1c0.3-2.1,0.4-5.5,0.4-6.5
						c0.3-8.3-3.2-22.4-11.4-35.7c-2.3-4.3-4.8-8.3-7.4-11.8c-0.8-8.3-3.4-16.6-7.9-23.7c-1.9-3-7.2-8.1-9.5-10.8v-0.2
						c0-0.2,0-0.4,0-0.5C98.8,10.2,98.6,9.7,98.2,9.2z"/>
					<path fill="#E6BA16" d="M134.9,117.1c1.6-3.8-0.7-8.5-4.4-10.4c-6.8-3.4-20.1,2.9-15.6,11.5C118.7,125.3,132,124.2,134.9,117.1
						z"/>
					<path fill="#020203" d="M58.1,128.1c-0.4-2.5-4.4-2.1-3.9,0.5c0.7,4,1.4,8.1,2.1,12.1c-2.4-0.6-4.7-1.3-7.1-1.9
						c-2.5-0.7-3.1,3.3-0.6,3.9c1.4,0.4,2.8,0.8,4.2,1.1c-1.8,0.7-3.7,1.4-5.5,2c-2.4,0.9-0.9,4.6,1.5,3.7c3.5-1.3,7-2.6,10.6-3.9
						c0.6-0.2,0.9-0.6,1.1-1c0.3-0.4,0.5-0.9,0.4-1.5C59.9,138.1,59,133.1,58.1,128.1z"/>
					<path fill="#020203" d="M96.5,124.5c-0.4-2.5-4.4-2.1-3.9,0.5c0.7,4,1.4,8.1,2.1,12.1c-2.4-0.6-4.7-1.3-7.1-1.9
						c-2.5-0.7-3.1,3.3-0.6,3.9c1.4,0.4,2.8,0.8,4.2,1.1c-1.8,0.7-3.7,1.4-5.5,2c-2.4,0.9-0.9,4.6,1.5,3.7c3.5-1.3,7-2.6,10.6-3.9
						c0.6-0.2,0.9-0.6,1.1-1c0.3-0.4,0.5-0.9,0.4-1.5C98.3,134.5,97.4,129.5,96.5,124.5z"/>
					<path fill="#E6BA16" d="M9.1,122.2c0.4,1.7,1.1,3.6,2.4,4.7c2,1.7,5,1.7,7.4,0.6c2.4-1.1,4.2-3.1,5.9-5c1.9-2,3.7-4.2,4.8-6.7
						c1.5-3.7,1.1-7.9,0.5-11.9c-0.5-3.1-1.2-6.2-1.9-9.3c-0.9-3.3-3.4-10.7-8.3-9.4c-2.8,0.8-6.1,7.6-7.4,10
						C8.1,103.4,6.8,113.2,9.1,122.2z"/>
					<path fill="#FFD712" d="M120.6,69c-0.9-1.9-1.8-3.8-2.8-5.7C107.1,42.6,92,28,67.1,30.1C14.5,34.6-9.5,122.5,53,132.4
						c3.9,0.6,7.9,0.9,11.9,0.8c13.8-0.2,28.8-2.1,41.4-8.1c14-6.6,22.4-19.2,20.9-34.9C126.4,82.9,123.8,75.8,120.6,69z"/>
					<path fill="#FE9B34" d="M34,90.1c-2.3,2-3.1,4.6-1.3,7.9c2.9,5.1,19.7,1.3,24.1,0.7c5.2-0.6,17.9-1.8,17.2-9.6
						c-0.5-5-6.1-5.8-10.1-5.9C60,83.3,40.7,84.3,34,90.1z"/>
					<g>
						<g>
							<path fill="#F9F9F7" d="M37.6,79.7c3.7,2,8.6,1.2,11.8-1.6c2.1-1.8,3.4-4.5,3.5-7.2c0.1-2.8-1.2-5.6-3.5-7.1
								C38.6,56.6,26,73.3,37.6,79.7z"/>
						</g>
						<g>
							<path fill="#020203" d="M37.6,76.8c2.3,1.3,5.3,0.7,7.3-1c1.3-1.1,2.1-2.8,2.2-4.5c0-1.7-0.8-3.5-2.2-4.4
								C38.2,62.5,30.4,72.8,37.6,76.8z"/>
						</g>
					</g>
					<g>
						<g>
							<path fill="#F9F9F7" d="M72.2,75.7c3.7,2,8.6,1.2,11.8-1.6c2.1-1.8,3.4-4.5,3.5-7.2c0.1-2.8-1.2-5.6-3.5-7.1
								C73.2,52.6,60.6,69.3,72.2,75.7z"/>
						</g>
						<g>
							<path fill="#020203" d="M71.6,72.8c2.3,1.3,5.3,0.7,7.3-1c1.3-1.1,2.1-2.8,2.2-4.5c0-1.7-0.8-3.5-2.2-4.4
								C72.2,58.5,64.4,68.9,71.6,72.8z"/>
						</g>
					</g>
					<path fill="#E6BA16" d="M96.6,78.2c-1.3-0.7-2.6-1.5-3.9-2.2c-0.6-0.3-1.4,0.1-1.6,0.6c-0.3,0.7,0.1,1.3,0.6,1.6
						c1.3,0.7,2.6,1.5,3.9,2.2c0.6,0.3,1.4-0.1,1.6-0.6C97.5,79.2,97.2,78.5,96.6,78.2z"/>
					<path fill="#E6BA16" d="M98.7,73.3c-1-0.3-2.1-0.6-3.1-1c-0.6-0.2-1.3,0-1.6,0.6c-0.2,0.6,0,1.4,0.6,1.6c1,0.3,2.1,0.6,3.1,1
						c0.6,0.2,1.3,0,1.6-0.6C99.5,74.4,99.3,73.5,98.7,73.3z"/>
					<path fill="#E6BA16" d="M91.6,113.7c0.4,2.1,1,4.3,2.5,5.8c2.3,2.2,6.1,2.4,9.2,1.4c3.1-1.1,5.6-3.2,8-5.3
						c2.6-2.2,5.2-4.5,6.8-7.4c2.3-4.2,2.3-9.2,1.9-13.9c-0.3-3.7-0.8-7.4-1.4-11.1c-0.7-4-3.1-12.9-9.4-11.9
						c-3.7,0.6-8.5,8.3-10.4,11C92.5,91.5,89.7,102.9,91.6,113.7z"/>
					<path fill="#E6BA16" d="M29.3,78.9c-1.1,0.5-2.1,0.9-3.2,1.4c-1.5,0.6-0.5,2.9,0.9,2.3c1.1-0.5,2.1-0.9,3.2-1.4
						C31.7,80.5,30.8,78.2,29.3,78.9z"/>
					<path fill="#E6BA16" d="M31,82.3c-1.2,1.1-2.4,2.1-3.6,3.2s0.3,3.1,1.5,2s2.4-2.1,3.6-3.2C33.7,83.3,32.2,81.3,31,82.3z"/>
					<path fill="#F87911" d="M65.9,89.2c-8.1,0.9-11.3,1.3-19.4,2.3c-1.6,0.2-1.3,2.7,0.3,2.5c8.1-0.9,11.3-1.3,19.4-2.3
						C67.8,91.5,67.5,89,65.9,89.2z"/>
					<path fill="#3A208B" d="M48.8,35.4l59.8,13.5c0,0-1-30.2-25-33.8C59.8,11.5,48.8,35.4,48.8,35.4z"/>
					<path fill="#8875B6" d="M78.1,42c-3.5-0.7-7.4-1.2-11.2-1.4c-4.4-0.3-8.7-0.3-12,0.2c-2.7,0.4-5.4,0.8-8.1,1.5
						c-6.1,1.6-11.5,4.4-16.4,8.4c-5.2-3.7-9.9-8.4-13-14.1c-0.6-1.1-1.1-2.2-1.6-3.3c-1.9-4.9-2.6-10.2-1.4-15.3
						c0.7-2.8,1.9-5.6,4.1-7.5c3.6-3.1,9-3.1,13.6-1.8c9.2,2.5,16.7,9,23.6,15.6C62.7,30.8,69.4,38,78.1,42z"/>
					<g>
						<path fill="#020203" d="M66.9,40.5c-4.4-0.3-8.7-0.3-12,0.2c-2.7,0.4-5.4,0.8-8.1,1.5c-6.1,1.6-11.5,4.4-16.4,8.4
							c-5.2-3.7-9.9-8.4-13-14.1c-0.6-1.1-1.1-2.2-1.6-3.3c-0.9-3.9-1.1-7.9-0.3-11.8c0.6-2.8,1.8-5.6,3.8-7.4c3.4-3,8.4-3,12.7-1.7
							c8.6,2.6,15.7,9.1,22.1,15.8C58.3,32.3,62.3,36.8,66.9,40.5z"/>
					</g>
					<path fill="#FFD712" d="M36.2,38.8c0.8,0.3,1.6,0.8,2.2,1.4c-0.8-1.1-1.4-2.3-1.7-3.7c-0.1-0.5-0.2-1.1,0-1.6
						c0.3-0.7,1-1.1,1.7-1.3c0.7-0.1,1.5,0,2.2,0.3c5.5,1.8,11.3,11,2.7,12.6c-2.7,0.5-4.7-0.7-6.9-2.1c-1.3-0.8-3.1-1.7-3.2-3.5
						C33.1,39.3,34.6,38.3,36.2,38.8z"/>
					<path fill="#8875B6" d="M89.5,17.7L89.5,17.7c0.5-0.1,1.1-0.2,1.5-0.5c1.2-0.7,1.3-2.5,0.6-3.7c-1.4-2.1-7.3-3.6-8.8-0.9
						c-0.6,1.2-0.5,2.1,0.1,2.9c-0.1,0.2-0.2,0.5,0,0.8c3.8,7.7,2.5,17-3.2,23.5c-0.9,1,0.7,2.2,1.6,1.2c5.7-6.5,7.3-15.9,4.2-23.9
						c0.2,0.1,0.4,0.1,0.7,0.2C94,23.8,99,33.1,100,43.2c0.1,1.3,2.1,1,2-0.2C100.9,33.3,96.5,24.3,89.5,17.7z"/>
					<path fill="#6E9CC8" d="M107.6,61.1c0.3,2.5-1.5,4.7-4,5s-4.7-1.5-5-4c-0.3-2.5,3.4-10.2,3.4-10.2S107.3,58.6,107.6,61.1z"/>
					<path fill="#6E9CC8" d="M116.9,73c0.3,2.5-1.5,4.7-4,5s-4.7-1.5-5-4s3.4-10.2,3.4-10.2S116.6,70.6,116.9,73z"/>
				</g>
			</g>
		</g>
	</g>
</g>
</svg>
