<svg width="14" height="18" viewBox="0 0 14 18" fill="none" xmlns="http://www.w3.org/2000/svg">
<path d="M13.291 7.90818C12.9118 7.05477 12.3606 6.2888 11.6719 5.65818L11.1035 5.1367C11.0842 5.11947 11.061 5.10725 11.0359 5.10111C11.0107 5.09496 10.9845 5.09507 10.9594 5.10143C10.9344 5.1078 10.9112 5.12022 10.8921 5.1376C10.8729 5.15499 10.8584 5.17681 10.8496 5.20115L10.5957 5.92966C10.4375 6.3867 10.1465 6.85349 9.73438 7.31248C9.70703 7.34177 9.67578 7.34959 9.6543 7.35154C9.63281 7.35349 9.59961 7.34959 9.57031 7.32224C9.54297 7.29881 9.5293 7.26365 9.53125 7.22849C9.60352 6.05271 9.25195 4.72654 8.48242 3.28318C7.8457 2.08396 6.96094 1.14841 5.85547 0.496071L5.04883 0.0214612C4.94336 -0.0410388 4.80859 0.0409924 4.81445 0.164039L4.85742 1.10154C4.88672 1.74216 4.8125 2.30857 4.63672 2.77927C4.42188 3.35545 4.11328 3.8906 3.71875 4.37107C3.44419 4.70498 3.13299 5.00701 2.79102 5.27146C1.96739 5.9046 1.29768 6.71586 0.832031 7.64451C0.367527 8.58125 0.125567 9.61259 0.125 10.6582C0.125 11.5801 0.306641 12.4726 0.666016 13.3144C1.01302 14.1249 1.51379 14.8605 2.14063 15.4804C2.77344 16.1054 3.50781 16.5976 4.32617 16.9394C5.17383 17.2949 6.07227 17.4746 7 17.4746C7.92774 17.4746 8.82617 17.2949 9.67383 16.9414C10.4902 16.6016 11.2325 16.106 11.8594 15.4824C12.4922 14.8574 12.9883 14.1269 13.334 13.3164C13.6928 12.4769 13.8769 11.5731 13.875 10.6601C13.875 9.70701 13.6797 8.78123 13.291 7.90818Z" fill="#D14A00"/>
</svg>
